<?xml version="1.0" encoding="utf-8"?>
<!-- Generator: Adobe Illustrator 25.2.1, SVG Export Plug-In . SVG Version: 6.00 Build 0)  -->
<svg version="1.1" id="Слой_1" xmlns="http://www.w3.org/2000/svg" xmlns:xlink="http://www.w3.org/1999/xlink" x="0px" y="0px"
	 viewBox="0 0 473.1 630.3" style="enable-background:new 0 0 473.1 630.3;" xml:space="preserve">
<style type="text/css">
	.st0{fill:#FFFFFF;stroke:#780000;stroke-width:5;stroke-miterlimit:10;}
	.st1{fill:none;stroke:#780000;stroke-width:4;stroke-miterlimit:10;}
	.st2{enable-background:new    ;}
	.st3{fill:#780000;}
	.st4{fill:none;stroke:#780000;stroke-width:3;stroke-miterlimit:10;}
	.st5{fill:none;}
	.st6{fill:#DE5212;}
	.st7{fill:none;stroke:#FFFFFF;stroke-miterlimit:10;}
	.st8{fill:#FFFFFF;}
	.st9{fill:none;stroke:#780000;stroke-miterlimit:10;}
</style>
<g id="Слой_2_2_">
	<ellipse class="st0" cx="236.7" cy="315.2" rx="232.4" ry="311.8"/>
	<ellipse class="st1" cx="235.9" cy="315" rx="178.6" ry="243.8"/>
	<g class="st2">
		<path class="st3" d="M77.7,451.4l-1.9,0.6c-0.2-0.3-0.6-0.9-1.1-1.7c-0.8-1.3-1.3-2.1-1.7-2.3c-0.3-0.2-1-0.4-2-0.5l-16.6-0.4
			L35,446.6c-0.2-0.6-0.4-1.2-0.6-1.8l-0.4-1.3l0.4-0.4l9.7-8.8c2-1.9,4-3.7,6-5.4c2-1.7,3.6-3.1,4.8-4.2c0.7-0.7,1.9-1.6,3.4-2.9
			c0.8-0.7,1.8-1.6,3-2.8c0.6-0.6,1-1.1,1.1-1.3c0.2-0.4,0.2-1,0-1.8c-0.2-0.8-0.2-1.7-0.2-2.6c0.6-0.3,1-0.5,1.3-0.6
			c0.1,0,0.3-0.1,0.6-0.2c0.5,1.4,1,2.9,1.4,4.6c0.5,1.7,0.9,3.2,1.4,4.5c0.5,1.5,0.9,2.5,1.2,3.1l1.9,4.6l0.5,1.3
			c-0.6,0.2-1.3,0.4-1.9,0.6l-1.8-2.8c-0.6-0.8-0.9-1.3-1.1-1.4c-0.2-0.1-0.5-0.1-0.7-0.1s-0.5,0.2-0.7,0.4l-2.3,2.1l-4.6,4.1
			l3.7,10.5c1,0.1,3.5,0.1,7.4,0.1c1.1,0,1.8-0.1,2.2-0.2c0.5-0.2,0.8-0.4,0.9-0.7c0.2-0.5,0.2-1.4-0.1-2.7c0-0.2-0.2-0.9-0.4-2.1
			c0.7-0.3,1.1-0.4,1.4-0.5c0.2-0.1,0.4-0.1,0.7-0.2c0.4,1.1,1.2,3.9,2.4,8.3l0.6,1.1c0.7,1.3,1.3,2.5,1.7,3.8L77.7,451.4z
			 M57.5,443.9c-1.5-4.3-2.3-6.9-2.6-7.6l-0.3-0.7c-1.4,1.1-3.1,2.5-5,4.2c-1.9,1.7-3.3,3-4.2,3.9L57.5,443.9z"/>
	</g>
	<g class="st2">
		<path class="st3" d="M62.7,403.9l-2.3,0.4c-0.2-0.4-0.4-1-0.6-1.6c-0.4-1.2-0.8-2.2-1.3-2.9c-0.5-0.2-0.9-0.3-1.4-0.3
			c-1.1,0-2.7,0.2-4.8,0.6l-12.2,2.3c-1.3,0.2-4.6,0.9-9.9,2c-1.4,0.3-2.3,0.6-2.6,0.8c-0.1,0.1-0.2,0.2-0.2,0.3
			c-0.2,0.3-0.2,0.9-0.1,1.8c0,0.4,0.1,1.3,0.2,2.9l-2,0.5l-1.3-6.4l-2-9.4l-0.2-1.1c-0.1-0.2-0.1-0.5-0.2-0.7
			c0-0.2-0.1-0.7-0.2-1.5l-0.3-1.8c-0.3-1.5-0.3-3.1-0.2-4.9c0-0.6,0.2-1.5,0.5-2.5c0.3-1.1,0.8-2,1.4-2.9s1.4-1.5,2.3-2.1
			c0.9-0.5,1.8-0.9,2.9-1.1c1.2-0.2,2.3-0.1,3.3,0.2c1,0.4,2,1,3,1.9c0.5,0.5,1.3,1.6,2.6,3.4c0.1-3,0.9-5.4,2.4-7.3
			c1.5-1.8,3.3-2.9,5.4-3.3c1.3-0.2,2.6-0.2,4.1,0c1.1,0.2,2.2,0.6,3.2,1.2c1.4,0.9,2.5,1.9,3.3,3c0.8,1.1,1.6,2.7,2.4,4.8
			c0.4,1,0.8,2.7,1.2,4.9l0.8,4.9c0.4,2.1,0.9,4.5,1.6,7.4C61.4,398,61.9,400.2,62.7,403.9z M38.4,394.4c0-0.8-0.1-1.7-0.3-2.7
			c-0.5-2.9-1.4-5-2.8-6.3c-1.3-1.3-3.3-1.7-5.9-1.2c-1.8,0.3-3.3,1.3-4.2,2.9c-1,1.6-1.2,3.8-0.7,6.7c0.1,0.8,0.4,1.9,0.9,3.2
			c0.4-0.1,1.1-0.2,1.9-0.4c1.6-0.4,3.9-0.8,6.8-1.4l2.4-0.4C37,394.7,37.6,394.5,38.4,394.4z M56.7,390.7c0.3-1.3,0.3-2.6,0.2-3.6
			c-0.4-2.2-1-3.9-2-5.2c-0.9-1.3-2-2.1-3.3-2.5c-1.3-0.4-2.9-0.5-4.6-0.1c-1.8,0.3-3.3,0.9-4.3,1.8c-1.4,1.2-2.2,2.6-2.5,4
			c-0.3,1.5-0.2,3.6,0.3,6.3c0.2,1.2,0.5,2,0.7,2.5l3.5-0.6l4.3-0.7l6.6-1.3C56,391.1,56.4,391,56.7,390.7z"/>
	</g>
	<g class="st2">
		<path class="st3" d="M41.8,349.9c-11.1-9.8-18.5-16.1-22.4-19.1c-1.4,0.1-2.3,0.2-2.5,0.3c-0.2,0.1-0.4,0.4-0.7,1
			c-0.2,0.6-0.5,1.6-0.8,3.2c-0.1,0.8-0.2,1.3-0.3,1.5c-0.7,0-1.3,0-1.7-0.1l-0.1-0.8c-0.1-1.6-0.1-2.7-0.1-3.3
			c0.1-1.6,0.1-3.1,0-4.6c-0.1-2.5-0.4-4.8-0.7-6.8c-0.1-0.8-0.2-1.4-0.2-1.8c0-0.4,0-1,0-1.8c0.8,0,1.5,0,2.1,0
			c0.6,2.2,1.1,3.6,1.4,4.3c0.3,0.7,0.8,1,1.6,1l4.2-0.2l6.5-0.4l3.7-0.2l5.3-0.4l4.2-0.2l3.4-0.3c0.7,0,1.5-0.1,2.3-0.1
			c0.1-0.4,0.2-0.8,0.2-1.2c0.3-1.9,0.6-3.3,1-4.2l2.1-0.2l0.1,1.3c0,0.3,0,0.7,0,1.1l0,2.2c-0.1,1.6,0,4.2,0.2,7.7
			c0.1,1.8,0.2,3.2,0.4,4.1c0.2,1.2,0.3,2,0.3,2.2c0,0.2,0,0.5-0.1,0.9c-0.9,0-1.6,0-1.9,0l-0.6-2l-0.3-1.1c-0.3-1.2-0.5-2-0.6-2.4
			c-1.5-0.2-4.9-0.1-10.4,0.2l-8.6,0.5l-5.4,0.3l22.2,19.3c2.2-0.1,3.3-0.2,3.4-0.3c0.1-0.1,0.2-0.5,0.2-1l0.2-1.9
			c0.2-1.7,0.4-2.6,0.5-2.8c0.4-0.1,0.7-0.1,0.9-0.1c0.3,0,0.6,0,1.1,0.1l0.1,1.8c0,0.7,0,1.8,0,3.1l0.1,2.2l0,1.5l0.1,2.7
			c0,0.9,0.2,1.9,0.4,3.1c0.2,1.2,0.3,2.9,0.5,5c-0.6,0-1.3,0-2.1-0.1c0-0.2-0.1-0.6-0.2-1.2l-0.3-1.2c-0.3-1.2-0.6-2.1-0.9-2.7
			c-3.7,0-6.9,0.1-9.7,0.3l-3.9,0.2l-9.9,0.5c-3,0.2-5.5,0.4-7.7,0.8c-0.1,0-0.3,0.1-0.6,0.2c-0.1,0.1-0.1,0.3-0.1,0.5
			c0,0.2,0,0.4-0.1,0.6c-0.1,0.9-0.2,1.7-0.2,2.4l-0.1,0.4c0,0.5-0.1,1-0.2,1.2c-0.6,0.1-0.9,0.1-1.1,0.1c-0.2,0-0.6,0-1-0.1
			c-0.1-0.4-0.2-0.9-0.2-1.4c-0.1-1.4-0.1-3.1,0-5c0-1.7,0-3.2,0-4.3c-0.1-1.6-0.2-3-0.5-4.3c-0.3-1.6-0.4-2.6-0.4-2.9
			c0-0.4,0-0.8,0.1-1.4l0.9-0.1c0.3,0,0.7,0,1.1,0.1l1.1,5.1c0.1,0.3,0.5,0.4,1.4,0.4c0.9,0,1.9,0,3.1-0.1l1.4-0.1l2.6-0.1l1.5-0.1
			l2,0c0.3,0,0.7-0.1,1.4-0.1c0.9-0.1,1.7-0.2,2.6-0.2c0.7,0,1.4-0.1,2.1-0.1l1.5,0L41.8,349.9z"/>
	</g>
	<g class="st2">
		<path class="st3" d="M64,191.5c-5.2-13.8-8.8-22.9-10.8-27.4c-1.3-0.6-2.1-0.9-2.3-0.9c-0.2,0-0.6,0.2-1.1,0.6
			c-0.5,0.4-1.2,1.2-2.2,2.5c-0.5,0.6-0.8,1-1,1.2c-0.6-0.3-1.1-0.6-1.4-0.9l0.3-0.8c0.7-1.5,1.2-2.5,1.4-2.9
			c0.8-1.3,1.6-2.7,2.2-4.1c1-2.3,1.9-4.4,2.6-6.4c0.2-0.7,0.5-1.3,0.7-1.7c0.2-0.4,0.5-0.9,0.8-1.6c0.7,0.3,1.3,0.7,1.8,1
			c-0.5,2.2-0.8,3.7-0.8,4.5c0,0.7,0.3,1.3,0.9,1.6l3.9,1.8l5.9,2.7l3.4,1.6l4.8,2.1L77,166l3.2,1.4c0.6,0.3,1.3,0.6,2.1,1
			c0.3-0.3,0.5-0.6,0.7-0.9c1.1-1.5,2.1-2.6,2.8-3.3l1.9,0.8l-0.5,1.2c-0.1,0.3-0.3,0.6-0.5,1l-1,1.9c-0.8,1.4-2,3.7-3.5,6.9
			c-0.7,1.6-1.3,2.9-1.6,3.8c-0.4,1.2-0.6,1.9-0.7,2.1c-0.1,0.2-0.3,0.4-0.5,0.8c-0.8-0.4-1.4-0.7-1.7-0.9l0.4-2l0.3-1.1
			c0.3-1.2,0.5-2,0.5-2.4c-1.2-0.8-4.3-2.4-9.3-4.7l-7.9-3.6l-4.9-2.3l10.6,27.4c2,0.9,3,1.3,3.2,1.3c0.2-0.1,0.4-0.3,0.7-0.8
			l1.1-1.6c1-1.4,1.6-2.2,1.8-2.3c0.4,0.1,0.7,0.2,0.9,0.3c0.2,0.1,0.5,0.3,0.9,0.5l-0.7,1.7c-0.3,0.7-0.8,1.6-1.5,2.8l-0.9,2
			l-0.7,1.3l-1.2,2.4c-0.4,0.8-0.7,1.8-1.1,2.9c-0.4,1.2-1.1,2.7-1.9,4.6c-0.6-0.3-1.2-0.6-1.8-1c0-0.2,0.2-0.6,0.4-1.2l0.3-1.2
			c0.3-1.2,0.5-2.1,0.5-2.8c-3.3-1.7-6.2-3.1-8.7-4.3l-3.5-1.6l-9-4.2c-2.7-1.2-5.1-2.2-7.1-2.9c-0.1,0-0.3-0.1-0.6-0.1
			c-0.1,0.1-0.2,0.2-0.3,0.4c-0.1,0.2-0.2,0.3-0.3,0.5c-0.5,0.8-0.9,1.4-1.3,2.1l-0.3,0.4c-0.3,0.5-0.5,0.8-0.7,1
			c-0.5-0.2-0.9-0.3-1-0.4c-0.2-0.1-0.5-0.3-0.8-0.6c0.1-0.4,0.2-0.9,0.4-1.3c0.6-1.3,1.4-2.8,2.3-4.4c0.8-1.5,1.5-2.8,2-3.8
			c0.7-1.4,1.2-2.8,1.6-4.1c0.5-1.6,0.8-2.5,1-2.7c0.2-0.3,0.4-0.7,0.7-1.2l0.8,0.3c0.3,0.1,0.6,0.3,1,0.6l-1.4,5
			c-0.1,0.3,0.3,0.6,1,1.1c0.8,0.4,1.7,0.9,2.8,1.4l1.3,0.5l2.4,1.1l1.4,0.6l1.8,0.9c0.2,0.1,0.7,0.3,1.3,0.5c0.8,0.3,1.6,0.7,2.4,1
			c0.6,0.3,1.3,0.6,1.9,0.9l1.3,0.7L64,191.5z"/>
	</g>
	<g class="st2">
		<path class="st3" d="M50.4,307.9l-2-0.2c-0.1-0.4-0.2-1-0.3-2c-0.2-1.5-0.4-2.4-0.6-2.8c-0.2-0.3-0.8-0.8-1.6-1.3l-15.1-6.8
			l-17.8-8c0-0.6,0.1-1.3,0.1-1.9l0.1-1.3l0.5-0.2l12.4-4.4c2.6-1,5.2-1.9,7.6-2.7c2.5-0.8,4.5-1.4,6-2c0.9-0.3,2.3-0.8,4.2-1.4
			c1-0.3,2.3-0.8,3.8-1.4c0.8-0.3,1.3-0.6,1.5-0.8c0.3-0.3,0.5-0.9,0.7-1.7c0.1-0.8,0.4-1.6,0.8-2.5c0.6-0.1,1.1-0.1,1.4-0.1
			c0.1,0,0.4,0,0.6,0.1c-0.1,1.4-0.2,3-0.5,4.8c-0.2,1.7-0.4,3.3-0.5,4.7c-0.1,1.5-0.1,2.7-0.1,3.3l0,5l0,1.4c-0.7,0-1.3-0.1-2-0.2
			l-0.5-3.3c-0.2-1-0.4-1.6-0.5-1.7c-0.2-0.2-0.4-0.3-0.7-0.3c-0.3,0-0.5,0-0.8,0.1l-2.9,1l-5.9,2l-0.7,11.2c0.9,0.5,3.2,1.5,6.7,3
			c1,0.4,1.7,0.7,2.1,0.7c0.5,0,0.9-0.1,1.1-0.3c0.4-0.4,0.7-1.3,0.9-2.5c0-0.2,0.2-0.9,0.4-2.1c0.7,0,1.2,0,1.5,0.1
			c0.2,0,0.4,0,0.7,0.1c-0.1,1.2-0.4,4.1-1,8.6l0.1,1.2c0.1,1.5,0.2,2.8,0.1,4.1L50.4,307.9z M34.7,293.2c0.3-4.6,0.5-7.2,0.6-8.1
			l0-0.7c-1.8,0.5-3.8,1.1-6.2,1.9c-2.4,0.8-4.2,1.5-5.4,2L34.7,293.2z"/>
	</g>
	<g class="st2">
		<path class="st3" d="M20.3,247.3c-0.2,0.4-0.4,0.7-0.5,1c-0.8,1.7-1.5,3-2.1,3.8l-2-0.4l0.3-1.4l0.3-1l0.6-2.1
			c0.5-1.5,1.2-4,2-7.4c0.3-1.1,0.5-2.2,0.6-3.1l0.4-3.1c0.1-0.3,0.2-0.6,0.4-0.9c0.9,0.2,1.5,0.4,1.9,0.6l0,2.1l-0.1,1.2
			c-0.1,1.2-0.1,2.1-0.1,2.5c0.9,0.5,6.8,2,17.7,4.5l12.4,2.7c0.2-0.6,0.4-1.3,0.6-2.3l3.3-13.2l0.2-0.9c0.4-1.9,0.6-3,0.5-3.4
			l-5.2-1.3l-14.7-3.4l-8.2-1.9c-1.1-0.2-1.8-0.4-2.2-0.4c-0.1,0.1-0.3,0.4-0.5,0.9l-0.5,1.2c-0.2,0.6-0.4,1.1-0.7,1.5l-0.4,1
			c-0.1,0.3-0.3,0.4-0.4,0.6c-0.5,0-0.8-0.1-0.9-0.1c-0.3-0.1-0.6-0.2-1-0.4l0.4-1.8c0.2-0.7,0.5-1.7,0.9-3L25,213
			c0.2-0.7,0.3-1.6,0.4-2.7l0.3-1.8l0.7-3.1c0.6,0.1,1.3,0.4,2,0.6l-0.2,2.5c-0.1,1.2-0.1,2.2,0,2.9l7,2.1l5.8,1.2l1.8,0.5l8,2
			l2.5,0.5l1.2,0.3c2.1,0.5,3.5,0.6,4.3,0.4c0.7-0.2,1.4-0.9,2-2c0.4-0.7,0.8-1.1,1.3-1.2c0.4-0.1,1.7,0.1,3.7,0.5l2.9,0.5
			c0.7,0.1,1.5,0.2,2.3,0.4c0,0.4-0.1,1-0.2,1.7c-0.7,0.2-1.5,0.4-2.3,0.5c-2.2,0.4-3.7,0.9-4.5,1.4c-0.8,0.5-1.4,1.2-1.9,2.1
			c-0.5,0.9-1.4,3.8-2.8,8.9c-1.4,5-2.7,10.1-3.9,15.3c-1.2,5.1-1.9,8.7-2.2,10.8c-0.1,0.8-0.2,1.4-0.3,1.7
			c-0.1,0.4-0.3,0.9-0.5,1.7c-0.7-0.2-1.4-0.4-2-0.6c0.1-2.7,0-4.5-0.2-5.4c-0.3-0.3-1.4-0.6-3.2-1c-0.1,0-0.3-0.1-0.6-0.1l-1.4-0.3
			l-6.4-1.5l-5-1.2l-3.8-0.8l-4-1l-3.4-0.7C21.9,247.8,21.2,247.6,20.3,247.3z"/>
	</g>
	<g class="st2">
		<path class="st3" d="M72.5,149.8c-2-1.4-3.8-3.1-5.3-5.2c-1.1-1.5-1.9-3.2-2.4-5.1c-0.5-1.8-0.7-3.8-0.7-6
			c0.1-2.2,0.5-4.2,1.1-6.1c0.7-1.9,1.7-3.8,3-5.8c2.3-3.4,4.9-5.9,7.8-7.5c2.9-1.6,6-2.4,9.1-2.4c4,0,7.6,1.1,10.7,3.2
			c4.6,3.1,7.5,7.3,8.6,12.6c1.2,5.3-0.1,10.8-3.9,16.3c-0.9,1.4-1.9,2.6-2.9,3.7c-0.7,0.8-1.5,1.5-2.1,2c-1.2,1-1.9,1.5-2.1,1.6
			c-2.2,1.1-4.2,1.8-6,2.2c-1.8,0.4-3.6,0.5-5.4,0.3c-1-0.1-2.7-0.5-5-1.3C75.7,151.8,74.2,151,72.5,149.8z M70.1,124.2
			c-1,1.4-1.5,2.9-1.5,4.4c-0.1,1.5,0.1,2.8,0.5,3.9c0.7,1.8,1.7,3.5,3.1,4.9c1.3,1.5,3.1,3,5.4,4.5c1.4,0.9,2.4,1.6,3.1,1.8
			c0.2,0.1,0.6,0.3,1.1,0.5c1.3,0.7,2.3,1.1,3,1.3c2.5,0.7,4.1,1.1,4.8,1.1c1.2,0.1,2.5-0.1,3.9-0.5c0.7-0.2,1.6-0.6,2.6-1.3
			c1-0.7,1.8-1.5,2.4-2.4c1.2-1.7,1.9-3.6,2.1-5.7c0.2-2-0.4-4.2-1.7-6.4c-1.3-2.2-3.6-4.4-6.7-6.5c-1.3-0.9-3.1-2-5.4-3.3l-0.5-0.2
			c-0.2,0-0.5-0.2-1.2-0.4c-3.1-1.2-5.9-1.4-8.4-0.7C74,119.9,71.8,121.6,70.1,124.2z"/>
	</g>
	<g class="st2">
		<path class="st3" d="M393.9,142.4c2.2-1,4.6-1.6,7.2-1.7c1.9-0.1,3.7,0.1,5.6,0.6c1.8,0.5,3.7,1.4,5.5,2.6s3.3,2.6,4.6,4.2
			c1.3,1.6,2.4,3.4,3.4,5.6c1.7,3.7,2.4,7.2,2.3,10.6s-1.1,6.3-2.7,9c-2.2,3.4-4.9,5.9-8.3,7.4c-5,2.3-10.1,2.5-15.3,0.8
			c-5.1-1.8-9.1-5.7-11.9-11.8c-0.7-1.5-1.2-3-1.6-4.4c-0.3-1.1-0.5-2-0.6-2.9c-0.2-1.6-0.3-2.4-0.3-2.6c0.2-2.4,0.6-4.5,1.3-6.2
			s1.5-3.3,2.6-4.8c0.6-0.8,1.9-2,3.7-3.5C390.5,144.1,392,143.2,393.9,142.4z M417,153.8c-0.7-1.5-1.7-2.7-2.9-3.6
			c-1.3-0.9-2.5-1.4-3.6-1.6c-1.9-0.3-3.9-0.3-5.8,0c-1.9,0.4-4.2,1.1-6.7,2.3c-1.5,0.7-2.6,1.3-3.2,1.7c-0.2,0.1-0.5,0.4-1,0.7
			c-1.2,0.8-2.1,1.4-2.6,1.9c-1.9,1.8-3.1,3-3.4,3.5c-0.7,0.9-1.2,2.1-1.6,3.6c-0.2,0.7-0.3,1.7-0.2,2.9c0.1,1.2,0.3,2.3,0.8,3.3
			c0.9,1.9,2.1,3.5,3.8,4.7s3.8,1.9,6.4,1.9c2.6,0,5.6-0.8,9.1-2.3c1.4-0.6,3.3-1.6,5.7-2.9l0.4-0.4c0.1-0.1,0.4-0.4,1-0.8
			c2.6-2,4.3-4.3,5-6.8S418.3,156.6,417,153.8z"/>
	</g>
	<g class="st2">
		<path class="st3" d="M114.4,124.2c-0.4-0.4-0.8-1-1.3-1.6l2.3-3c0.3-0.4,0.6-0.9,0.9-1.5l-4.7-5.6c-1.9-1.9-3.2-3.3-4.1-4.2
			l-0.5-0.5c-0.5-0.6-1.9-2.1-4.1-4.5l-0.6-0.6l-1.6-1.8L98.7,99l-0.9-0.9c-0.8-0.8-1.7-1.7-2.9-2.7c-0.1-0.1-0.3-0.2-0.6-0.4
			c-0.2,0.1-0.3,0.2-0.5,0.3c-0.1,0.1-0.3,0.2-0.5,0.3c-0.7,0.4-1.3,0.9-2,1.5L91,97.3c-0.4,0.3-0.8,0.5-1,0.7
			c-0.4-0.4-0.7-0.6-0.8-0.7c-0.2-0.2-0.3-0.4-0.5-0.8c0.2-0.3,0.6-0.7,1.1-1.2c0.5-0.5,0.9-0.8,1-1c1.9-1.4,3.3-2.6,4.1-3.3
			c0.4-0.4,0.8-0.7,1.2-1.1c0.4-0.3,0.8-0.7,1.1-0.9c0.5-0.4,1.5-1.6,3.2-3.4c0.2-0.4,0.5-0.7,0.9-1c0.5-0.5,1-0.9,1.4-1.2
			c0.3,0.3,0.5,0.5,0.6,0.6c0.2,0.2,0.4,0.5,0.7,0.9l-3.2,4.1c-0.2,0.4-0.1,0.8,0.1,1l0.8,0.7l0.3,0.3l0.9,1l0.7,0.8l0.2,0.2
			c0.2,0.1,0.3,0.3,0.4,0.4l2.5,2.8c0.3,0.2,0.5,0.4,0.6,0.5c0.1,0.1,0.3,0.3,0.6,0.7c0.2,0.2,0.4,0.5,0.6,0.7
			c0.2,0.2,0.7,0.7,1.5,1.5c0.5-0.3,0.8-0.6,1.1-0.8l3.2-2.9l1.5-1.4l3.9-3.6l3.6-3.6c0.5-0.5,0.9-1,1.4-1.6
			c-0.4-0.5-1.5-1.7-3.3-3.6l-0.9-1l-3.5-3.5l-1.6-1.4c-0.1-0.1-0.3-0.1-0.6,0c-0.8,0.2-2.1,0.8-3.9,1.8c-0.3,0.2-0.6,0.4-1,0.5
			c-0.4-0.5-0.8-1-1-1.4c0.3-0.3,0.5-0.5,0.6-0.6l2.1-1.9c1.5-1.1,2.9-2.2,4.3-3.5c0.3-0.3,0.6-0.5,0.7-0.7l2.7-2.7
			c0.2-0.3,0.5-0.5,0.7-0.7c0.4-0.6,0.9-1.1,1.4-1.7c0.4-0.4,0.9-0.8,1.6-1.3c0.5,0.6,0.9,1.1,1.3,1.6c-1,1.5-1.7,2.5-2,3
			c-0.3,0.5-0.5,1.1-0.7,1.6l0.3,0.5l0.3,0.4l0.5,0.5l0.2,0.3c0.2,0.3,0.4,0.6,0.6,0.7l0.5,0.5c0.6,0.6,1,1,1,1l2.5,2.7l1.9,2
			l2.5,2.8c0.6,0.6,1.8,1.9,3.7,3.8l2.9,3l2.4,2.5c0.4,0.5,1,1.1,1.6,1.7c0.4-0.2,0.7-0.4,1-0.6c1.6-1,2.9-1.6,3.8-2l1.5,1.4
			c-0.6,0.5-0.9,0.9-1,1c-0.7,0.6-1.5,1.3-2.5,2.1c-1.3,1-3.2,2.7-5.8,5.1c-1.2,1.1-2.6,2.6-4.3,4.5c-0.2,0.2-0.5,0.4-0.8,0.6
			c-0.6-0.7-1-1.2-1.2-1.5l1.3-1.9l1.5-1.9c0.1-0.2,0.3-0.5,0.5-0.8c-0.9-1.3-2.6-3.3-5.1-6l-1.7-1.8c-0.8-0.7-1.7-1.5-2.7-2.6
			c-0.6,0.5-1.2,1-1.8,1.5l-10,9.2l-0.2,0.2l-0.2,0.1c-0.1,0.1-0.2,0.2-0.3,0.3c-0.4,0.4-0.7,0.7-0.9,0.9l-0.6,0.6
			c-0.3,0.3-0.5,0.6-0.8,1l1.4,1.7l0.3,0.3c0.4,0.4,0.6,0.6,0.7,0.7l6.2,6.6c0.3,0.4,0.7,0.7,1.1,1.1l0.3-0.1l3.6-2.5
			c0.2-0.1,0.4-0.2,0.5-0.2c0.2-0.1,0.4-0.2,0.7-0.3c0.4,0.3,0.6,0.5,0.7,0.6c0.2,0.2,0.4,0.5,0.6,0.8c-0.5,0.5-0.9,0.9-1.3,1.2
			c-0.3,0.3-0.6,0.6-0.9,0.8c-0.1,0.1-0.3,0.2-0.4,0.3l-3.1,2.7c-0.8,0.6-1.8,1.5-3.1,2.7l-0.4,0.4c-0.6,0.6-0.9,0.9-1,1
			C117.6,121,116.2,122.4,114.4,124.2z"/>
	</g>
	<g class="st2">
		<path class="st3" d="M155.9,88.7c-0.3-0.5-0.5-1.2-0.8-1.9l3-2.2c0.4-0.3,0.8-0.7,1.3-1.1l-2.9-6.7c-1.2-2.3-2.1-4.1-2.7-5.3
			l-0.3-0.6c-0.3-0.7-1.2-2.6-2.6-5.5l-0.4-0.7l-1-2.2l-1.2-2.3l-0.6-1.1c-0.5-1-1.2-2.2-2-3.5c-0.1-0.1-0.2-0.3-0.5-0.5
			c-0.2,0-0.3,0.1-0.5,0.1c-0.2,0.1-0.4,0.1-0.6,0.2c-0.8,0.2-1.5,0.5-2.3,0.8l-0.5,0.1c-0.5,0.2-0.9,0.3-1.2,0.3
			c-0.3-0.5-0.5-0.8-0.6-0.9c-0.1-0.2-0.2-0.5-0.3-0.9c0.3-0.2,0.8-0.5,1.4-0.8s1.1-0.5,1.3-0.7c2.3-0.8,3.9-1.5,5-2
			c0.5-0.2,1-0.5,1.5-0.7s0.9-0.4,1.3-0.6c0.6-0.3,2-1.1,4.1-2.3c0.3-0.3,0.7-0.5,1.1-0.7c0.7-0.3,1.2-0.5,1.7-0.7
			c0.2,0.4,0.3,0.6,0.4,0.8c0.1,0.3,0.3,0.6,0.4,1.1l-4.3,3c-0.3,0.4-0.3,0.7-0.2,1l0.5,0.9l0.2,0.4l0.5,1.2l0.4,0.9l0.1,0.2
			c0.1,0.2,0.2,0.3,0.3,0.5l1.6,3.4c0.2,0.3,0.3,0.5,0.4,0.7c0,0.1,0.2,0.4,0.4,0.9c0.1,0.3,0.3,0.6,0.4,0.9c0.1,0.3,0.5,0.9,1,1.8
			c0.5-0.2,1-0.3,1.3-0.4l3.9-1.8l1.9-0.9l4.7-2.3l4.5-2.4c0.6-0.3,1.2-0.7,1.8-1.1c-0.3-0.6-0.9-2.1-2.1-4.4l-0.5-1.2l-2.3-4.4
			l-1.1-1.8c-0.1-0.1-0.3-0.2-0.5-0.2c-0.8-0.1-2.2,0.2-4.3,0.6c-0.4,0.1-0.7,0.2-1.1,0.2c-0.3-0.6-0.4-1.2-0.5-1.6
			c0.4-0.2,0.6-0.3,0.7-0.4l2.6-1.2c1.7-0.6,3.4-1.3,5.1-2.1c0.4-0.2,0.7-0.3,0.9-0.5l3.4-1.8c0.3-0.2,0.6-0.3,0.9-0.5
			c0.6-0.4,1.2-0.8,1.8-1.2c0.5-0.2,1.1-0.5,1.9-0.8c0.3,0.7,0.6,1.3,0.8,1.9c-1.4,1.1-2.4,1.9-2.8,2.3c-0.4,0.4-0.8,0.8-1.2,1.4
			l0.1,0.6l0.2,0.4l0.4,0.7l0.1,0.4c0.1,0.4,0.2,0.7,0.3,0.9l0.3,0.7c0.4,0.8,0.7,1.2,0.7,1.3l1.6,3.3l1.3,2.5l1.6,3.4
			c0.4,0.8,1.2,2.3,2.4,4.7l1.8,3.7l1.6,3.1c0.3,0.6,0.6,1.3,1,2.1c0.4-0.1,0.8-0.2,1.1-0.2c1.8-0.5,3.2-0.7,4.2-0.7l1,1.8
			c-0.7,0.4-1.1,0.6-1.2,0.6c-0.8,0.4-1.8,0.8-3,1.3c-1.5,0.5-3.9,1.6-7.1,3.2c-1.4,0.7-3.2,1.7-5.4,3.1c-0.2,0.1-0.6,0.2-1,0.3
			c-0.4-0.8-0.6-1.4-0.7-1.8l1.8-1.5l2-1.4c0.2-0.2,0.4-0.4,0.7-0.6c-0.5-1.5-1.5-3.9-3.1-7.2l-1.1-2.3c-0.6-0.9-1.2-2-1.8-3.3
			c-0.7,0.3-1.4,0.6-2.2,0.9l-12.3,5.8l-0.2,0.1l-0.2,0.1c-0.1,0.1-0.3,0.1-0.4,0.2c-0.4,0.2-0.8,0.4-1.1,0.6l-0.7,0.4
			c-0.3,0.2-0.7,0.4-1,0.7l0.8,2l0.2,0.3c0.3,0.5,0.4,0.8,0.5,0.9l4,8.2c0.2,0.5,0.5,0.9,0.8,1.4l0.3,0l4.2-1.3
			c0.2,0,0.4-0.1,0.5-0.1c0.3-0.1,0.5-0.1,0.7,0c0.2,0.4,0.4,0.6,0.5,0.8c0.1,0.2,0.2,0.6,0.4,1c-0.6,0.3-1.2,0.6-1.6,0.8
			c-0.4,0.2-0.8,0.4-1.1,0.5c-0.2,0.1-0.3,0.1-0.5,0.2l-3.8,1.7c-0.9,0.3-2.2,0.9-3.8,1.7l-0.5,0.3c-0.7,0.4-1.1,0.6-1.3,0.7
			C159.9,86.7,158.2,87.6,155.9,88.7z"/>
	</g>
	<g class="st2">
		<path class="st3" d="M216.3,43.2c2.1-0.3,4-0.4,5.8-0.5c5.5-0.2,9.6,0.7,12.3,2.6c2.7,1.9,4.1,4.4,4.2,7.4
			c0.1,3.5-1.2,6.4-4.1,8.6c-2.8,2.2-6.4,3.4-10.8,3.5c-0.8,0-2.1,0-4-0.1c-1.3-0.1-2.9,0-4.7,0c-0.8,0-2.4,0.2-4.6,0.4l-6.8,0.5
			l0-2.3c0.4-0.1,0.9-0.3,1.7-0.4c1.4-0.2,2.4-0.5,3.1-0.9c0.5-0.5,0.7-2.5,0.5-6.1c-0.3-6.9-0.5-12.8-0.8-17.9
			c-0.3-5-0.5-7.7-0.8-7.9c-0.2-0.3-0.9-0.4-2-0.4c-0.4,0-1.4-0.1-2.9-0.2l-0.2-2.1l1.3-0.1c1.6-0.1,3.7,0,6.4,0.1l2.5,0.1
			c0.6,0,1.4-0.1,2.6-0.2l1.7-0.2c1.1-0.1,1.9-0.2,2.4-0.3c0.7-0.1,1.4-0.2,2.2-0.2l0.1,0.6l0,1c0,0.1,0,0.3,0,0.5
			c-3,0.7-4.6,1.2-5,1.5c-0.4,0.3-0.5,1.2-0.4,2.7l0.1,1.5c0.1,0.7,0.1,1.7,0.2,2.9L216.3,43.2z M217.4,61.7
			c1.3,0.5,2.5,0.7,3.6,0.7c6.3-0.2,9.4-3.1,9.2-8.5c-0.2-5.8-3.5-8.6-9.9-8.3c-1.7,0.1-3,0.2-3.8,0.4c0,0.7,0,1.3,0,1.8l0.1,1.8
			l0.1,4.3l0.3,6l0,0.5C217.1,60.8,217.2,61.2,217.4,61.7z M241.5,64.1l-0.1-2.1c0.4-0.1,1-0.3,1.9-0.6c1.2-0.4,2.2-0.7,2.8-1.1
			c0.3-0.6,0.5-1.5,0.4-2.5l-0.2-3.5l-0.2-6.7l-0.1-1.6c0-3.9,0-5.9,0-6l-0.2-3.9l0-1.6l-0.3-3.3l-0.1-1.3c0-0.2-0.1-0.5-0.2-0.9
			c-0.8-0.3-2.1-0.5-3.9-0.6c-0.4,0-0.8,0-1-0.1l-0.2-2.6l8.4,0c1,0,1.7,0,1.9,0c1.2,0,3-0.2,5.5-0.4c1.4-0.1,2.3-0.2,2.7-0.3
			c0,0.4,0.1,0.7,0.1,0.9c0,0.3,0,0.8,0,1.3c-0.8,0.3-1.7,0.6-2.6,0.9s-1.8,0.6-2.4,0.8c-0.1,0.5-0.1,1.2-0.1,2.2
			c0,0.8,0.1,1.5,0.2,2c0.1,3.3,0.1,5.8,0.2,7.6l0.3,7.7l0,3.9l0.3,5.9l0,1.1c0,0.2,0.1,0.4,0.2,0.7c1.2,0.2,2.3,0.3,3.2,0.4
			c0.2,0,0.8,0.1,1.8,0.2c0.1,0.6,0.2,1.1,0.2,1.5c0,0.2,0,0.5,0,1c-0.3,0-0.4,0-0.6,0.1c-0.6,0.1-1,0.1-1.1,0.1
			c-0.1,0-0.4,0-0.8-0.1c-0.3,0-1.6-0.1-3.9-0.3l-5.2,0.1c-1,0-2.5,0.2-4.5,0.5C242.7,64,241.9,64.1,241.5,64.1z"/>
	</g>
	<g class="st2">
		<path class="st3" d="M282.2,58.9c13.4-6.3,22.2-10.6,26.5-12.9c0.5-1.4,0.7-2.2,0.7-2.4c0-0.2-0.2-0.6-0.7-1
			c-0.4-0.4-1.3-1.1-2.7-2c-0.7-0.4-1.1-0.7-1.3-0.9c0.3-0.7,0.5-1.2,0.8-1.5l0.8,0.3c1.5,0.6,2.6,1,3,1.2c1.4,0.7,2.8,1.3,4.2,1.9
			c2.3,0.9,4.5,1.5,6.5,2.1c0.7,0.2,1.3,0.4,1.7,0.5c0.4,0.1,1,0.4,1.7,0.7c-0.3,0.7-0.6,1.4-0.9,1.9c-2.3-0.3-3.8-0.5-4.5-0.4
			s-1.2,0.4-1.5,1.1l-1.5,4l-2.2,6.1l-1.3,3.5l-1.7,5l-1.4,3.9l-1.1,3.3c-0.2,0.6-0.5,1.4-0.9,2.2c0.3,0.3,0.7,0.5,1,0.7
			c1.6,1,2.8,1.9,3.5,2.6l-0.6,2l-1.2-0.4c-0.3-0.1-0.7-0.3-1.1-0.5l-2-0.9c-1.4-0.7-3.8-1.7-7.1-2.9c-1.7-0.6-3-1-3.9-1.3
			c-1.2-0.3-1.9-0.5-2.2-0.6c-0.2-0.1-0.5-0.2-0.8-0.5c0.3-0.9,0.6-1.5,0.8-1.7l2,0.2l1.1,0.2c1.2,0.2,2,0.4,2.4,0.4
			c0.7-1.3,2-4.5,3.9-9.6l2.9-8.1l1.9-5.1l-26.5,12.7c-0.7,2.1-1.1,3.1-1.1,3.2c0.1,0.2,0.4,0.4,0.9,0.6l1.7,0.9
			c1.5,0.9,2.3,1.4,2.4,1.6c-0.1,0.4-0.2,0.7-0.2,0.9c-0.1,0.2-0.2,0.6-0.5,0.9l-1.7-0.6c-0.7-0.3-1.7-0.7-2.9-1.2l-2.1-0.8
			l-1.4-0.6l-2.5-1c-0.8-0.3-1.8-0.6-3-0.9c-1.2-0.3-2.8-0.8-4.8-1.6c0.2-0.6,0.5-1.2,0.9-1.9c0.2,0,0.6,0.1,1.2,0.3l1.3,0.2
			c1.2,0.2,2.2,0.3,2.9,0.3c1.5-3.4,2.7-6.4,3.6-9l1.3-3.7l3.5-9.3c1-2.8,1.8-5.3,2.4-7.3c0-0.1,0-0.3,0-0.6
			c-0.1-0.1-0.2-0.2-0.5-0.3c-0.2-0.1-0.3-0.2-0.5-0.3c-0.8-0.5-1.5-0.8-2.2-1.1l-0.4-0.3c-0.5-0.2-0.8-0.5-1-0.6
			c0.1-0.5,0.2-0.9,0.3-1c0.1-0.2,0.2-0.5,0.5-0.8c0.4,0.1,0.9,0.2,1.3,0.3c1.3,0.5,2.9,1.1,4.6,1.9c1.6,0.7,2.9,1.3,3.9,1.7
			c1.5,0.5,2.9,1,4.2,1.3c1.6,0.4,2.5,0.7,2.8,0.8c0.3,0.1,0.8,0.3,1.3,0.6l-0.3,0.8c-0.1,0.3-0.3,0.6-0.5,1l-5.1-1
			c-0.3-0.1-0.6,0.3-1,1.1c-0.4,0.8-0.7,1.8-1.2,2.9l-0.4,1.3l-0.9,2.5l-0.5,1.4l-0.8,1.8c-0.1,0.2-0.2,0.7-0.4,1.3
			c-0.3,0.8-0.5,1.7-0.8,2.5c-0.2,0.7-0.5,1.3-0.8,2l-0.6,1.4L282.2,58.9z M295,26.7c0.3-0.8,0.8-1.3,1.5-1.7
			c0.7-0.3,1.5-0.4,2.3-0.1c0.7,0.2,1.1,0.6,1.5,1.1c0.3,0.5,0.6,1.5,0.8,3.1c0.3,2.1,1.1,3.4,2.3,3.8c1.2,0.4,2.6-0.1,4.2-1.5
			c1-0.9,1.9-1.5,2.5-1.8c0.6-0.3,1.3-0.3,2,0c0.8,0.3,1.3,0.8,1.6,1.5c0.3,0.7,0.3,1.5,0.1,2.2c-0.5,1.5-1.9,2.3-4,2.4
			s-4.4-0.3-7-1.2c-2.8-1-4.9-2.2-6.4-3.7S294.5,28.1,295,26.7z"/>
	</g>
	<g class="st2">
		<path class="st3" d="M381.3,118.1c0.5,1.7,0.6,3.5,0.2,5.4c-0.4,1.9-1.5,4.5-3.2,7.9c-2,4-3.2,6.8-3.4,8.4
			c-0.3,1.6-0.1,3.3,0.5,5.2c0.2,0.7,0.4,1.2,0.4,1.4c-0.3,0.2-0.5,0.4-0.6,0.5c-0.2,0.1-0.5,0.3-1,0.5l-1.7-2.7L370,141
			c-0.6-0.9-1.5-2.1-2.6-3.5c1.5-2.5,3.3-6,5.4-10.4c2.1-4.4,3.1-7.3,3.1-8.7c0-1.4-0.3-2.6-1-3.6c-0.6,0.3-1.2,0.7-1.7,1l-3.3,2.4
			c-0.7,0.5-1.3,0.9-1.9,1.4l-3,1.9l-0.8,0.6l-1.6,1.2c-0.2,0.6,0,1.6,0.6,3.2c0.3,0.9,0.5,1.7,0.5,2.4c-0.3,0.3-0.5,0.5-0.7,0.6
			c-0.1,0.1-0.3,0.2-0.6,0.4c-0.5-0.7-0.9-1.3-1.2-1.7c-0.8-1.2-1.6-2.5-2.5-4l-1-1.7L356,120l-2.9-4.3l-1.6-2.3l1.3-0.9
			c0.2,0.1,1,0.6,2.5,1.6l0.7,0.5c0.8,0.5,1.3,0.8,1.5,1c0.4,0.2,0.8,0.2,1.2,0.1s1.7-0.9,3.9-2.4l2.3-1.6l5.2-3.4l3.6-2.5l1.1-0.7
			l3.1-2.2l1.3-0.8c1.9-1.3,3.1-2.2,3.6-2.9c0.1-0.8-0.2-2-0.8-3.7c-0.4-1-0.5-1.7-0.5-2.2l1.6-0.8c0.3,0.3,0.5,0.6,0.7,0.9
			c0.8,1.2,1.5,2.4,2.1,3.7c0.6,1.3,1.6,2.8,2.8,4.7l0.8,1l2.1,2.9c0.3,0.4,0.8,1,1.3,1.7l0.6,0.8l0.4,0.6c-0.1,0.1-0.3,0.3-0.5,0.4
			c-0.6,0.4-0.9,0.6-1.1,0.6c-1-0.7-2-1.6-2.9-2.5c-0.7-0.7-1.2-1.1-1.4-1.2c-0.3-0.1-0.6,0-1.1,0.3c-1.6,1.1-2.7,1.8-3.2,2.2
			l-2,1.4l-1.6,1l-1.8,1.2l-2.1,1.4c0.9,0.7,2.1,1.4,3.3,1.8c1.3,0.5,3.5,0.6,6.7,0.5c5.6-0.3,9.4,0,11.6,0.9
			c2.2,0.9,3.8,2.1,4.9,3.8c1.1,1.6,1.5,3.1,1.3,4.5c-0.2,1.4-0.9,2.5-2.1,3.2c-0.8,0.6-1.8,0.8-2.8,0.7s-1.8-0.6-2.4-1.5
			c-0.5-0.7-0.7-1.4-0.7-2c0-0.6,0.3-1.5,0.7-2.7c0.5-1.2,0.5-2,0.1-2.6c-0.9-1.4-3.9-1.9-9.1-1.5
			C384.8,119,382.6,118.7,381.3,118.1z"/>
	</g>
	<g class="st2">
		<path class="st3" d="M433.3,201l-17.5-1.2c-4.5-0.3-7-0.4-7.4-0.3c-0.6,0.2-0.9,0.5-1,1c-0.1,0.5-0.1,1.3,0.1,2.4
			c0,0.2,0.1,0.9,0.3,2.1l-1.4,0.5c-0.2,0.1-0.5,0.1-0.7,0.1c-0.3-1.2-0.8-2.9-1.2-5.2l-0.7-3.3l-0.5-1.1c-0.6-1.3-1.2-2.7-1.6-4.4
			l1.9-0.5c0.1,0.2,0.5,0.7,1,1.8c0.7,1.4,1.3,2.2,1.7,2.5c0.4,0.3,1.5,0.5,3.1,0.7c1.6,0.2,6.4,0.5,14.1,1l10.7,0.9l9.8,0.7l0.9,3
			c-1,0.9-4.3,3.6-9.9,8.1l-1.4,1.3c-1.6,1.4-4.2,3.5-7.7,6.2l-1.9,1.5c-1.3,1.1-2.8,2.2-4.4,3.4c-1.7,1.3-2.9,2.3-3.6,3
			c-0.7,0.7-0.9,1.5-0.8,2.3c0.2,1,0.2,2,0.1,3c-0.6,0.3-1,0.5-1.3,0.6l-0.6,0.1c-0.4-1.4-0.8-3-1.2-4.8c-0.3-1.6-0.6-2.8-0.9-3.7
			c-0.7-2.3-1.5-4.6-2.3-6.8l-1.1-3.2c0.7-0.2,1.3-0.4,1.9-0.5c0.1,0.1,0.4,0.7,1,1.9c0.9,1.4,1.4,2.2,1.6,2.4
			c0.2,0.2,0.4,0.2,0.8,0.1c0.3-0.1,2-1.3,4.9-3.7l2.8-2.2C427.6,205.7,431.8,202.4,433.3,201z"/>
	</g>
	<g class="st2">
		<path class="st3" d="M446,253.8l-17-4.2c-4.4-1.1-6.8-1.6-7.2-1.6c-0.6,0.1-1,0.3-1.2,0.8c-0.2,0.5-0.3,1.3-0.4,2.3
			c0,0.2,0,0.9-0.1,2.1l-1.5,0.2c-0.2,0-0.5,0-0.7,0c-0.1-1.2-0.2-3-0.3-5.3l-0.1-3.4l-0.3-1.2c-0.4-1.4-0.7-2.9-0.9-4.6l2-0.2
			c0.1,0.2,0.3,0.8,0.7,1.9c0.5,1.5,0.9,2.4,1.2,2.8c0.4,0.4,1.3,0.8,2.9,1.2c1.6,0.4,6.2,1.6,13.7,3.4l10.4,2.7l9.6,2.4l0.4,3.2
			c-1.1,0.7-4.8,2.8-11.1,6.3l-1.6,1c-1.8,1.1-4.7,2.7-8.7,4.7l-2.1,1.2c-1.5,0.8-3.1,1.7-4.9,2.6c-1.9,1-3.3,1.7-4.1,2.3
			c-0.8,0.6-1.2,1.3-1.2,2.2c0,1.1-0.1,2.1-0.4,3c-0.6,0.2-1.1,0.3-1.4,0.3l-0.6,0c-0.2-1.4-0.3-3.1-0.4-4.9
			c-0.1-1.6-0.1-2.9-0.2-3.8c-0.3-2.4-0.6-4.8-1.1-7.1l-0.5-3.3c0.7-0.1,1.4-0.1,2-0.1c0,0.1,0.3,0.8,0.7,2.1c0.6,1.5,1,2.4,1.1,2.6
			c0.1,0.2,0.4,0.3,0.8,0.3c0.3,0,2.2-1,5.4-2.8l3.1-1.7C439.6,257.4,444.3,254.9,446,253.8z"/>
	</g>
	<g class="st2">
		<path class="st3" d="M459.6,288.1c-0.1,1.1-0.1,2.1-0.3,2.9c-0.2,1.5-0.3,3.3-0.3,5.4c0,0.7,0.1,2.5,0.2,5.4
			c0.2,4.4,0.3,8.3,0.3,11.8l0.1,5.3c0,1.2-0.1,2.9-0.4,5.3c-0.4,0.4-0.9,0.5-1.6,0.5l-6,0l-1.2,0.1c-0.1,0-0.3,0-0.5,0l-0.1-1.2
			c0-0.2,0-0.5,0.1-1c0.4-0.2,1-0.4,1.7-0.7l2.1-1.2c0.9-0.5,1.8-1.1,2.7-1.9c0.1-0.5,0.2-1.1,0.2-1.9c0-0.2,0.1-0.8,0.1-1.8
			c0.2-1.8,0.2-3.8,0.2-5.9c0-2.4,0-4.5-0.1-6.4c-0.5-0.1-2.4-0.1-5.8-0.1l-4.9,0l-3.7,0c-0.1,0.5-0.1,0.9-0.1,1.3
			c0,3.5,0.1,6,0.2,7.5s0.3,2.4,0.6,2.8c0.2,0.4,0.7,0.7,1.3,0.9c0.4,0.2,1.9,0.5,4.3,1l0,0.4l0,1.7c-1.7,0.1-3.1,0.1-4,0.1
			c-2.1,0-3.4,0-4,0s-1,0-1.4,0c-0.5,0-1.4,0-2.5,0.1s-2,0.1-2.6,0.1l-0.6,0l0-2.1c0.3-0.1,1-0.2,1.9-0.4c1.8-0.4,2.9-0.7,3.4-1.1
			c0.4-0.2,0.6-0.6,0.8-1.2c0.1-0.4,0.2-1.8,0.2-4.3c0-3-0.1-5.2-0.2-6.7c-0.5,0-0.8,0-1,0c-2.3,0-4.3,0-5.8,0.1l-6.3-0.1
			c-0.7,0-1.2,0.3-1.5,0.8c-0.4,0.8-0.6,3.3-0.6,7.4c0,2.7,0.2,5,0.6,6.9c0.3,1.3,1,2.5,2,3.5c1.3,1.3,3.1,2.4,5.5,3.3
			c0.1,0.6,0.1,1.1,0.1,1.5c0,0.2,0,0.5,0,1c-0.5-0.1-0.9-0.1-1.2-0.1l-0.9-0.2l-5.5-1.1l-3.3-0.5c-0.1-1.3-0.1-2.3-0.1-3
			c0-1.1,0.1-4,0.3-8.8c0.1-3.3,0.2-7.4,0.2-12.1c0-2.3-0.1-5.2-0.3-8.6l0-1.2l-0.1-3.5l2,0c0.1,0.4,0.2,1.1,0.3,2.2
			c0.2,2,0.6,3.4,0.9,4.2c0.6,0.2,1.3,0.3,2.1,0.3c0.3,0,0.9,0,1.7,0l0.9,0l11-0.1l3.3,0l4.7-0.2l3.3,0l3.6-0.3c0.1,0,0.3,0,0.6-0.1
			c0.2-0.2,0.4-0.5,0.4-0.9c0-0.2,0.1-0.5,0.2-0.9c0.2-1.1,0.4-2.2,0.4-3.2c0-0.4,0.1-0.8,0.1-1.3L459.6,288.1z"/>
	</g>
	<g class="st2">
		<path class="st3" d="M421.9,362.7l2.7-13.2c0.1-0.6,0.3-1.4,0.6-2.6l0.6-2.6c0.4-1.9,0.3-3.3-0.1-4.2c-0.4-0.9-1.8-2.1-4.2-3.8
			c-1.1-0.8-1.7-1.3-1.8-1.4c0-0.5,0.1-0.8,0.1-1c0-0.2,0.2-0.5,0.4-0.7c0.3,0.1,0.8,0.2,1.3,0.3c0.6,0.2,1.6,0.5,2.9,0.8
			c2.1,0.5,3.9,1.1,5.3,1.7c0.1,0.2,0.1,0.9,0,1.9c-0.1,1.1-0.1,1.8,0.1,2.3c0.2,0.4,1,1.2,2.5,2.2c1.5,1.1,4.1,2.9,8,5.5l8.7,6.1
			l8.2,5.8l4.3,3l-0.6,3.1c-0.1,0-0.9,0.3-2.4,0.7c-10.1,2.8-19.2,5.1-27.4,6.8c-4,0.8-6.5,1.5-7.5,1.9c-0.9,0.4-1.6,1.2-2.2,2.2
			c-0.4,0.7-0.8,1.1-1.2,1.2c-0.4,0.1-1.7,0-3.7-0.4l-2.9-0.4c-0.7-0.1-1.5-0.2-2.3-0.3c0-0.4,0-1,0.1-1.6c0.7-0.2,1.4-0.5,2.3-0.6
			c2.1-0.5,3.6-1,4.4-1.5c0.8-0.5,1.5-1.3,2-2.4s1-3.1,1.5-6l0.1-0.6l0.1-0.9l0.1-0.7L421.9,362.7z M452,360.1
			c-14.1-9.7-21.4-14.6-22.1-14.8c-0.7-0.1-1.2,0.3-1.5,1.4c-0.3,1.1-0.8,3.7-1.6,7.7l-1.2,5.9c-0.6,2.9-0.8,4.5-0.8,5
			c0,0.5,0.2,0.8,0.7,0.9c0.4,0.1,1.5-0.1,3.3-0.6l16.5-4C448.9,360.9,451.2,360.4,452,360.1z"/>
	</g>
	<g class="st2">
		<path class="st3" d="M423.9,416.5c0.4-1.2,0.4-2.5,0-3.8c-0.4-1.4-2.2-3.8-5.5-7.4c-3.2-3.6-5.9-6.4-8.1-8.4
			c0.7-1.9,1.2-3.3,1.5-4.1l2.1-7.4c0.5,0.1,0.8,0.1,1.1,0.2c0.2,0.1,0.4,0.2,0.8,0.3c0.1,0.2,0.1,0.7,0,1.4c0,2,0.3,3.7,1,5.1
			c0.7,1.4,2.6,3.8,5.7,7.1c2.6,2.8,4.4,5,5.3,6.7c0.9,1.7,1.4,3.4,1.4,5.2c1.1-1,3.1-1.8,6-2.5c5-1.2,7.8-2.5,8.3-4.1
			c0.2-0.7-0.1-1.5-0.9-2.5c-0.8-1-1.3-1.8-1.5-2.3c-0.2-0.6-0.2-1.3,0.1-2.1c0.3-1.1,1-1.8,1.9-2.2c0.9-0.4,1.9-0.4,2.9-0.1
			c1.3,0.4,2.3,1.2,2.9,2.5c0.6,1.3,0.7,2.8,0.1,4.7c-0.6,1.9-1.8,3.5-3.6,5s-5.4,2.9-10.8,4.2c-2.7,0.7-4.6,1.3-5.8,2
			c-1.2,0.7-2.2,1.7-3.1,3l8.5,2.6c2.2,0.7,3.7,1,4.5,1c0.7-0.4,1.5-1.4,2.4-2.9c0.5-0.9,1-1.5,1.4-1.8l1.7,0.7
			c0,0.4-0.1,0.7-0.3,1.1c-0.4,1.4-0.9,2.7-1.5,4c-0.6,1.3-1.2,3-1.9,5.1l-0.3,1.2l-0.9,3.4c-0.1,0.5-0.3,1.2-0.5,2.1l-0.2,1
			l-0.3,0.7c-0.2,0-0.4-0.1-0.6-0.1c-0.6-0.2-1-0.3-1.2-0.4c-0.1-1.3,0-2.5,0.1-3.8c0.1-1,0.1-1.6,0.1-1.9c-0.1-0.3-0.4-0.5-1-0.7
			l-7.5-2.2l-2.4-0.8l-2.4-0.8c0,1.2,0.2,2.5,0.7,3.7c0.4,1.3,1.7,3.1,3.9,5.5c3.7,4.1,5.9,7.3,6.6,9.6c0.7,2.2,0.7,4.3,0.1,6.2
			c-0.6,1.9-1.5,3.1-2.7,3.8c-1.2,0.7-2.5,0.8-3.8,0.4c-1-0.3-1.7-0.9-2.3-1.7s-0.7-1.8-0.3-2.9c0.2-0.8,0.6-1.4,1.1-1.8
			c0.5-0.4,1.3-0.8,2.5-1.1c1.2-0.4,1.9-0.9,2.1-1.6c0.5-1.5-1-4.2-4.5-8c-2-2.2-3.2-4-3.6-5.5c-1,1.5-2.4,2.7-4.1,3.5
			c-1.7,0.9-4.4,1.7-8.2,2.5c-4.4,1-7.3,1.8-8.7,2.6c-1.4,0.8-2.6,2-3.7,3.6c-0.4,0.6-0.7,1-0.8,1.1c-0.3-0.1-0.6-0.1-0.8-0.2
			c-0.2-0.1-0.6-0.2-1-0.4l1-3.1l1.4-4.2c0.3-1.1,0.7-2.5,1.1-4.2c2.9-0.4,6.7-1.2,11.4-2.3c4.7-1.1,7.6-2.2,8.7-3.1
			c1.1-0.9,1.8-1.9,2.2-3.1c-0.7-0.3-1.3-0.5-1.8-0.7l-3.9-1.1l-2.2-0.7l-3.3-1.1l-1-0.2l-1.9-0.5c-0.5,0.3-1.2,1.1-2.1,2.4
			c-0.5,0.8-1,1.4-1.5,1.8c-0.4,0-0.7-0.1-0.9-0.1c-0.1,0-0.4-0.1-0.7-0.3c0.2-0.9,0.4-1.5,0.6-2c0.4-1.4,1-2.9,1.6-4.5l0.7-1.9
			l0.7-2.5l1.6-5l0.7-2.7l1.6,0.5c0.1,0.2,0.2,1.2,0.3,3l0.1,0.8c0.1,0.9,0.2,1.6,0.2,1.9c0.1,0.5,0.3,0.8,0.7,1
			c0.4,0.2,1.8,0.7,4.3,1.5l2.7,0.7L423.9,416.5z"/>
	</g>
	<g class="st2">
		<path class="st3" d="M187.9,563.4c0.1,0,0.7,0.2,1.9,0.5l0.9,0.3l1.8,0.5c-0.1,0.6-0.2,1.1-0.3,1.4c0,0.1-0.1,0.4-0.3,0.9
			c-0.1,0.3-0.4,1.3-0.9,3l-1.3,4.2l-0.8,2.7l-5.8,18.9l-0.5,1.6c-0.2,0.6-0.2,1,0,1.3c0.2,0.3,0.8,0.7,1.9,1.2
			c0.4,0.2,1.3,0.6,2.6,1.2c0,0.2-0.1,0.4-0.1,0.6c-0.1,0.2-0.2,0.7-0.5,1.3l-1.2-0.4c-0.8-0.2-2-0.6-3.6-1.2
			c-0.9-0.3-1.6-0.6-1.9-0.7c-0.5-0.1-2.1-0.6-5-1.3c-0.3-0.1-0.6-0.1-0.8-0.2l-0.5-0.1l-0.8-0.3l-0.8-0.2l-1.4-0.5
			c-0.2-0.1-0.6-0.1-1.2-0.3c0.1-0.4,0.2-0.7,0.2-1c0.1-0.2,0.2-0.5,0.3-0.9c0.8,0,1.7,0.1,2.8,0.2c1.4,0.1,2.4,0.1,2.8-0.1
			c0.4-0.2,0.6-0.5,0.8-0.9l0.5-1.9l0.7-2l1.2-4.3l0.3-1.1c0-0.1,0.2-0.7,0.6-1.7c0.2-0.5,0.3-0.9,0.5-1.3c0.1-0.2,0.3-1,0.6-2.3
			l0.6-1.6c0.3-1.2,0.5-2,0.5-2.2c0.1-0.3,0.2-0.6,0.3-0.8l0.3-0.7l0.5-1.9l0.3-0.8c0.1-0.4,0.3-0.9,0.5-1.6
			c0.2-0.6,0.4-1.4,0.7-2.3c-1.6,0.6-3.4,1.1-5.4,1.6c-0.2,0.1-1.2,0.2-2.9,0.4c-0.3-1.1-0.5-1.9-0.6-2.4c2.3-0.4,3.9-0.8,4.7-1.1
			c1.4-0.5,3-1.1,4.7-2C185.7,564.9,186.7,564.3,187.9,563.4z"/>
	</g>
	<g class="st2">
		<path class="st3" d="M246,570.1c0.1,0,0.8-0.1,2-0.2l0.9-0.1l1.8-0.1c0.1,0.6,0.2,1.1,0.2,1.4c0,0.1,0,0.4,0,0.9
			c0,0.3,0.1,1.3,0.2,3.1l0.3,4.4l0.3,2.8l1.5,19.7l0.1,1.7c0,0.6,0.2,1,0.5,1.2c0.3,0.2,1,0.4,2.2,0.5c0.5,0,1.4,0.1,2.8,0.2
			c0.1,0.2,0.1,0.4,0.1,0.5c0,0.2,0,0.7,0.1,1.4l-1.3,0.1c-0.9,0.1-2.1,0.1-3.7,0.2c-1,0-1.7,0.1-2,0.1c-0.5,0-2.2,0.2-5.2,0.6
			c-0.3,0-0.6,0.1-0.8,0.1l-0.5,0l-0.9,0l-0.8,0.1l-1.5,0.1c-0.2,0-0.6,0.1-1.2,0.2c-0.1-0.4-0.1-0.8-0.1-1c0-0.2,0-0.5,0-1
			c0.8-0.3,1.6-0.6,2.7-0.9c1.4-0.4,2.2-0.8,2.5-1.1s0.4-0.7,0.4-1.2l-0.2-2l-0.1-2.2l-0.4-4.4l-0.1-1.1c0-0.2,0-0.7-0.1-1.8
			c0-0.5,0-1-0.1-1.4c0-0.3-0.1-1-0.3-2.4l0-1.7c-0.2-1.3-0.3-2-0.3-2.2c0-0.3,0-0.6,0-0.9l0-0.7l-0.3-2l0-0.9c0-0.4-0.1-1-0.1-1.6
			c-0.1-0.7-0.1-1.5-0.2-2.4c-1.3,1.2-2.8,2.3-4.5,3.5c-0.2,0.1-1,0.6-2.5,1.4c-0.7-0.9-1.2-1.5-1.4-2c2-1.2,3.3-2.2,4-2.7
			c1.2-1,2.4-2.1,3.7-3.6C244.5,572.3,245.2,571.4,246,570.1z"/>
	</g>
	<g class="st2">
		<path class="st3" d="M205.8,608c-0.3-0.4-0.4-0.8-0.4-1.1c0-0.3,0.2-0.6,0.4-0.8c0.1-0.1,0.7-0.3,1.8-0.6c2.1-0.6,3.9-1.3,5.5-2.3
			c1.6-0.9,2.9-2.1,4.1-3.6c1.2-1.5,2-3.1,2.7-4.8c0.6-1.8,1-3.2,1.1-4.2c0.1-0.3,0.2-1.2,0.5-2.5c0.2-1,0.4-2.2,0.6-3.6
			c0.5-5,0.3-8.4-0.7-10.4c-0.8-1.5-1.8-2.3-3.2-2.4c-1.2-0.1-2.4,0.3-3.4,1.4c-1.4,1.5-2.2,3.7-2.5,6.7c-0.2,1.8-0.3,3.6-0.2,5.2
			c0,1.1,0.3,2.1,0.7,3.1c0.3,0.6,0.6,1,0.9,1.2c0.7,0.4,1.5,0.7,2.2,0.8c0.5,0.1,1,0,1.5-0.1l0.4,0c0.2,0,0.4,0.2,0.6,0.4
			c0.2,0.2,0.2,0.6,0.2,1c-0.1,0.7-0.4,1.2-1,1.3c-1.3,0.3-2.7,0.4-4.1,0.3c-0.9-0.1-1.5-0.2-1.7-0.3c-1.8-0.9-2.8-1.5-3.3-1.8
			c-1-0.9-1.8-1.9-2.3-2.8c-0.5-0.9-0.8-1.9-1-3c-0.2-1.5-0.2-2.9-0.1-4.4c0.2-2.3,1-4.4,2.2-6.3c1.2-1.9,2.8-3.2,4.8-4
			c1.9-0.8,3.9-1.1,6-0.9c3.7,0.4,6.6,2.1,8.8,5.2c2.2,3.1,3,7.3,2.4,12.6c-0.3,2.6-1.1,5.4-2.4,8.2c-0.3,0.7-1.2,2-2.6,3.9
			c-1.4,1.9-3.1,3.6-5.3,5c-2.2,1.5-4.4,2.4-6.7,3c-2.3,0.5-4.1,0.7-5.5,0.6C206.6,608.1,206.2,608.1,205.8,608z"/>
	</g>
	<g class="st2">
		<path class="st3" d="M280.4,604.1c-0.4-0.3-0.6-0.6-0.7-0.9c-0.1-0.3-0.1-0.6,0.1-0.8c0.1-0.2,0.5-0.6,1.4-1.2
			c1.8-1.3,3.2-2.7,4.3-4.1c1.1-1.4,2-3.1,2.5-4.8s0.8-3.6,0.7-5.5c-0.1-1.9-0.2-3.3-0.5-4.4c-0.1-0.3-0.2-1.2-0.4-2.5
			c-0.1-1-0.4-2.2-0.8-3.5c-1.3-4.8-2.8-7.9-4.4-9.4c-1.3-1.1-2.5-1.5-3.8-1.1c-1.2,0.3-2.1,1.2-2.6,2.6c-0.7,1.9-0.7,4.3,0.1,7.2
			c0.5,1.8,1.1,3.4,1.7,4.9c0.4,1,1,1.9,1.8,2.6c0.5,0.5,0.9,0.8,1.3,0.8c0.8,0.2,1.6,0.1,2.4-0.1c0.5-0.1,0.9-0.3,1.4-0.6l0.4-0.2
			c0.2-0.1,0.5,0,0.7,0.2c0.2,0.2,0.4,0.5,0.5,0.9c0.2,0.7,0,1.3-0.5,1.6c-1.1,0.8-2.3,1.4-3.8,1.7c-0.9,0.2-1.5,0.4-1.7,0.3
			c-2-0.2-3.2-0.3-3.7-0.5c-1.3-0.5-2.4-1.1-3.2-1.7c-0.8-0.7-1.5-1.5-2.1-2.5c-0.7-1.3-1.3-2.7-1.7-4.1c-0.6-2.2-0.7-4.5-0.2-6.6
			c0.5-2.2,1.5-4,3-5.4c1.5-1.4,3.3-2.4,5.3-3c3.6-1,6.9-0.4,10.1,1.7s5.4,5.7,6.8,10.9c0.7,2.5,0.9,5.4,0.7,8.5
			c0,0.8-0.4,2.3-1,4.6s-1.6,4.5-3.1,6.6c-1.5,2.1-3.2,3.9-5.1,5.2c-1.9,1.3-3.6,2.2-4.9,2.5C281.2,604,280.8,604,280.4,604.1z"/>
	</g>
	<circle class="st3" cx="150.8" cy="569.1" r="6.5"/>
	<circle class="st3" cx="321.2" cy="569.1" r="6.5"/>
	<line class="st4" x1="120.4" y1="403.4" x2="352.8" y2="403.4"/>
	<line class="st4" x1="96.6" y1="414.2" x2="374.4" y2="414.2"/>
	<line class="st4" x1="153.7" y1="512.2" x2="318.1" y2="512.2"/>
	<line class="st4" x1="176" y1="521.7" x2="289.4" y2="521.7"/>
	<g class="st2">
		<path class="st3" d="M126.4,448.1v0.2c0,0.4,0,0.7,0.1,0.9c0.2,0.1,0.8,0.3,1.6,0.5l0.5,0.1c0.1,0.2,0.1,0.3,0.1,0.5
			c0,0.1,0,0.2,0,0.4c-0.5,0-1,0-1.7-0.1c-0.4,0-0.7,0-1.1,0c-0.3,0-0.5,0-0.8,0l-0.5,0l-0.5,0c-0.3,0-0.6,0-1.1,0l-1,0.1
			c-0.7,0-1.2,0.1-1.4,0.1l0-1l0.5,0c0.8-0.1,1.4-0.2,1.7-0.3c0.1-0.2,0.1-0.7,0.1-1.3c-5.6-0.4-8.4-2.3-8.4-5.7
			c0-1.8,0.7-3.1,2.1-4.1s3.5-1.5,6.3-1.6c0-0.1,0-0.2,0-0.5c0-0.2,0-0.5-0.1-0.8c-0.3-0.1-0.9-0.2-1.7-0.3l-0.5,0l0-1l2.4,0.1
			l1.1,0l0.5,0l0.5,0l2.1-0.1l1.5-0.1c0,0.2,0,0.3,0,0.4c0,0.2,0,0.4-0.1,0.6l-0.5,0c-0.9,0.2-1.4,0.4-1.6,0.5
			c0,0.2-0.1,0.4-0.1,0.9v0.2c2.8,0.1,4.9,0.6,6.3,1.6c1.4,1,2.1,2.4,2.1,4.1C134.8,445.8,132,447.8,126.4,448.1z M123,437.8
			c-1.5,0.2-2.6,0.6-3.4,1.3s-1.2,1.9-1.2,3.4c0,2.8,1.5,4.3,4.5,4.4c0-0.3,0-0.6,0-0.8l0-2.1l0-1.9l0-1.8l0-0.5l0-0.5V437.8z
			 M126.4,437.8v1.6l0,0.9l0,1.8l0,1.9l0,2.2l0,0.8c3-0.2,4.5-1.6,4.5-4.4c0-1.6-0.4-2.7-1.2-3.4S127.9,437.9,126.4,437.8z"/>
		<path class="st3" d="M151.9,438.5l-0.5,0c-0.1,0-0.3,0-0.4,0c-0.1-0.2-0.2-0.4-0.3-0.7l-0.5-0.9c-0.2-0.4-0.5-0.8-0.8-1.2
			c-0.1-0.1-0.4-0.1-0.8-0.1l-2.9-0.2l-1.7,0l-0.7,0c-0.1,0.1-0.1,0.3-0.1,0.5l0,6l0,0.8l0,0.7l0.1,0.9c0,0.2,0,0.6-0.1,1.2
			c0,0.3,0,0.5,0,0.7l0.1,1l0,0.4c0,0.4,0,0.7,0,0.8c0,0.2,0,0.3,0.1,0.5c0.1,0,0.3,0.1,0.8,0.2l0.4,0.1c0.2,0.1,0.4,0.1,0.6,0.1
			c0.3,0,0.5,0.1,0.6,0.2c0.1,0.1,0.1,0.2,0.1,0.5c0,0.4-0.1,0.5-0.4,0.5c-0.1,0-0.5,0-1.1-0.1l-0.7,0l-0.2,0c-0.3,0-0.6,0-0.8,0
			l-1.3,0h-1.8l-1.7,0.1l-0.5,0c-0.1,0-0.2,0-0.2-0.1c0-0.1,0-0.2,0-0.3c0-0.1,0-0.3,0-0.5c0.1-0.1,0.3-0.2,0.6-0.3
			c0.2,0,0.4-0.1,0.6-0.2l0.5-0.2c0.4-0.1,0.6-0.2,0.7-0.3s0.1-0.3,0.2-0.7s0.1-0.7,0.1-0.8l0-2.7l0-1.6l0-1.3l0-1.3
			c0-0.7,0-1.6-0.1-2.7l0-1.6c0-0.3,0-0.5-0.1-0.6s-0.3-0.1-0.6-0.1c-0.1,0-0.5,0-1-0.1c-0.6-0.1-0.9-0.2-0.9-0.2
			c-0.1-0.1-0.1-0.4-0.1-0.7c0-0.1,0-0.2,0-0.3l0.4,0c0.2,0,0.5,0,1.1,0.1l3.7,0.1l5,0l1.7,0c1.1,0,2.2,0.1,3.1,0.2
			c0.2,0.1,0.2,0.4,0.2,0.7L151.9,438.5z"/>
		<path class="st3" d="M167.2,438.5l-0.5,0c-0.1,0-0.3,0-0.4,0c-0.1-0.2-0.2-0.4-0.3-0.7c-0.3-0.5-0.5-0.9-0.6-1.1
			c-0.4-0.6-0.7-1-0.7-1s-0.3-0.1-0.6-0.1c-0.3,0-0.7,0-1.2-0.1c-0.8-0.1-1.7-0.1-2.7-0.1c-0.4,0-0.8,0-1.1,0
			c-0.2,0.1-0.3,0.5-0.3,1.4l0,4.4c0.9-0.1,1.7-0.1,2.4-0.1c1.4,0,2.5,0.1,3.3,0.4s1.6,0.6,2.1,1c0.6,0.4,1,0.9,1.3,1.5
			c0.3,0.6,0.4,1.1,0.4,1.8c0,1.5-0.6,2.8-1.9,3.7c-1.3,0.9-2.8,1.4-4.7,1.4c-0.3,0-0.9,0-1.8-0.1c-0.6,0-1.2-0.1-2.1-0.1
			c-0.4,0-1,0-2,0.1l-3,0.1l0-1c0.2-0.1,0.4-0.1,0.7-0.1c0.6-0.1,1.1-0.2,1.3-0.3c0.2-0.2,0.3-1.1,0.3-2.7l0-7l-0.1-2.8
			c0-0.8-0.1-1.2-0.2-1.3s-0.4-0.2-0.8-0.2c-0.2,0-0.6-0.1-1.2-0.1l0-0.9l1.3,0l4.6,0l0,0l5.5-0.1c0.9,0,1.8,0.1,2.7,0.2
			c0.2,0.1,0.2,0.4,0.2,0.7L167.2,438.5z M158.9,449.2c0.5,0.2,1.1,0.3,1.5,0.3c2.7,0,4.1-1.2,4.1-3.6c0-2.5-1.4-3.8-4.2-3.8
			c-0.7,0-1.3,0-1.7,0.1c0,0.3,0,0.6,0,0.8l0,0.8l0,1.9l0,2.6v0.2C158.8,448.8,158.8,449,158.9,449.2z"/>
		<path class="st3" d="M170.6,442.2c0-1,0.2-2.1,0.6-3.2c0.3-0.8,0.7-1.5,1.2-2.1s1.2-1.2,2-1.7c0.8-0.5,1.6-0.8,2.5-1.1
			c0.8-0.2,1.8-0.3,2.8-0.3c1.8,0,3.3,0.3,4.6,1s2.3,1.6,3.1,2.7c1,1.5,1.4,3,1.4,4.6c0,2.4-0.8,4.4-2.4,6.2
			c-1.6,1.7-3.9,2.6-6.8,2.6c-0.7,0-1.4,0-2-0.1c-0.5-0.1-0.9-0.2-1.2-0.3c-0.6-0.2-1-0.3-1.1-0.4c-0.9-0.5-1.7-1.1-2.2-1.6
			c-0.6-0.5-1-1.2-1.4-1.9c-0.2-0.4-0.5-1.1-0.7-2.1C170.7,443.9,170.6,443.1,170.6,442.2z M179.3,435.1c-0.7,0-1.4,0.2-2,0.5
			c-0.6,0.3-1,0.7-1.3,1.1c-0.5,0.7-0.8,1.5-1,2.3c-0.2,0.8-0.3,1.8-0.3,3c0,0.7,0,1.2,0.1,1.6c0,0.1,0,0.3,0.1,0.5
			c0.1,0.6,0.2,1.1,0.3,1.4c0.4,1.1,0.6,1.7,0.8,2c0.3,0.4,0.6,0.9,1.1,1.3c0.3,0.2,0.6,0.4,1.1,0.6c0.5,0.2,1,0.3,1.4,0.3
			c0.9,0,1.8-0.2,2.5-0.6c0.8-0.4,1.4-1.2,1.9-2.2c0.5-1,0.7-2.4,0.7-4c0-0.7,0-1.6-0.1-2.8l-0.1-0.2c0-0.1-0.1-0.2-0.1-0.5
			c-0.3-1.4-0.9-2.4-1.8-3.2S180.6,435.1,179.3,435.1z"/>
		<path class="st3" d="M198.8,447.1c-0.1-0.5-0.9-1.8-2.4-3.9c-0.5-0.7-0.9-1.3-1.3-2c-0.7-1.2-1.5-2.3-2.2-3.3l-0.3-0.5
			c-0.4-0.6-0.8-1.2-1.3-1.8c-0.2-0.2-0.5-0.3-1-0.4l-0.2-0.1c-0.2-0.1-0.3-0.1-0.4-0.1c0-0.1-0.1-0.1-0.1-0.2c0-0.1,0-0.1,0-0.2
			c0-0.1,0-0.2,0-0.4c0.1-0.1,0.4-0.1,0.7-0.1l0.8,0c0,0,0.1,0,0.1,0c0.2,0,0.4,0.1,0.4,0.1c0,0,0.1,0,0.1,0
			c0.9,0.1,2.1,0.2,3.5,0.2c0.7,0,1.3,0,2-0.1c0.1,0,0.2,0,0.2,0c0,0,0,0,0.1,0c0,0.1,0.1,0.2,0.1,0.3c0,0,0,0.1,0,0.2
			c0,0.1,0,0.1,0,0.1l0,0.4c-0.2,0.1-0.4,0.1-0.7,0.2l-0.6,0.1c-0.3,0-0.6,0.1-0.8,0.1c-0.1,0-0.1,0.1-0.1,0.2
			c0.1,0.3,0.4,0.7,0.8,1.3l0.3,0.6l0.7,1l1.8,2.7l1.3,2.4l3.3-7.1c0.3-0.5,0.4-0.8,0.4-0.9c0-0.2-0.3-0.4-0.8-0.4l-0.5-0.1
			c-0.2,0-0.3-0.1-0.4-0.1c0-0.1,0-0.4-0.1-0.9c0.1,0,0.5,0,1.1,0.1l1.5,0.1l0.3,0.1h0.6l0.2,0c0.2,0,0.4,0,0.5-0.1l0.4,0l0.1,0
			c0.1,0,0.3,0,0.4,0l0,1l-0.2,0.1c-0.7,0.1-1.2,0.2-1.5,0.4c-0.3,0.2-0.6,0.7-1,1.5l-4.5,9.6c-1.3,2.8-3,4.1-5.2,4.1
			c-0.9,0-1.6-0.2-2.1-0.6s-0.8-0.9-0.8-1.5c0-0.5,0.2-0.9,0.5-1.2c0.3-0.3,0.7-0.5,1.2-0.5c0.3,0,0.5,0.1,0.8,0.2
			c0.2,0.1,0.6,0.4,0.9,1c0.3,0.4,0.6,0.7,0.9,0.7C197.4,449,198.2,448.4,198.8,447.1z"/>
		<path class="st3" d="M214.6,450.8l0-1c0.2-0.1,0.4-0.1,0.7-0.1c0.6-0.1,1-0.2,1.3-0.3c0.1-0.2,0.2-0.4,0.2-0.6
			c0.1-0.5,0.1-1.2,0.1-2.1l0-5.4c0-0.6,0-2-0.1-4.4c0-0.6-0.1-1-0.1-1.2c0-0.1-0.1-0.1-0.1-0.1c-0.1-0.1-0.4-0.1-0.8-0.2
			c-0.2,0-0.6-0.1-1.2-0.1l0-0.9l2.8-0.1l4.2-0.1l0.5,0c0.1,0,0.2,0,0.3,0c0.1,0,0.3,0,0.7,0h0.8c0.6,0,1.3,0.1,2.1,0.3
			c0.3,0.1,0.6,0.2,1,0.4c0.4,0.2,0.8,0.5,1.1,0.8c0.3,0.3,0.6,0.7,0.7,1.1s0.2,0.9,0.2,1.3c0,0.5-0.1,1-0.3,1.4
			c-0.2,0.4-0.6,0.8-1,1.1c-0.2,0.2-0.8,0.4-1.6,0.8c1.3,0.3,2.3,0.8,2.9,1.6c0.7,0.8,1,1.6,1,2.6c0,0.6-0.1,1.1-0.3,1.8
			c-0.2,0.5-0.4,0.9-0.8,1.3c-0.5,0.5-1,0.9-1.5,1.2s-1.3,0.5-2.2,0.6c-0.5,0.1-1.2,0.1-2.2,0.1l-2.2-0.1c-0.9,0-2,0-3.3,0.1
			C217.2,450.7,216.2,450.7,214.6,450.8z M220.5,441.1c0.3,0.1,0.7,0.1,1.2,0.1c1.3,0,2.2-0.2,2.9-0.7c0.7-0.5,1-1.3,1-2.4
			c0-0.8-0.3-1.5-0.9-2s-1.5-0.8-2.8-0.8c-0.4,0-0.8,0-1.4,0.1c0,0.2,0,0.5,0,0.8c0,0.7,0.1,1.7,0.1,3l0,1.1
			C220.5,440.5,220.5,440.7,220.5,441.1z M220.6,449.2c0.6,0.2,1.1,0.3,1.5,0.3c1,0,1.8-0.1,2.4-0.4c0.6-0.3,1.1-0.7,1.3-1.2
			s0.4-1.2,0.4-2c0-0.8-0.2-1.5-0.5-2c-0.4-0.7-0.9-1.1-1.5-1.4c-0.6-0.2-1.5-0.3-2.7-0.3c-0.5,0-0.9,0-1.1,0.1v1.6l0,1.9l0,2.9
			C220.5,448.9,220.6,449,220.6,449.2z"/>
		<path class="st3" d="M232.4,442.2c0-1,0.2-2.1,0.6-3.2c0.3-0.8,0.7-1.5,1.2-2.1s1.2-1.2,2-1.7c0.8-0.5,1.6-0.8,2.5-1.1
			c0.8-0.2,1.8-0.3,2.8-0.3c1.8,0,3.3,0.3,4.6,1s2.3,1.6,3.1,2.7c1,1.5,1.4,3,1.4,4.6c0,2.4-0.8,4.4-2.4,6.2s-3.9,2.6-6.8,2.6
			c-0.7,0-1.4,0-2-0.1c-0.5-0.1-0.9-0.2-1.2-0.3c-0.6-0.2-1-0.3-1.1-0.4c-0.9-0.5-1.7-1.1-2.2-1.6c-0.6-0.5-1-1.2-1.4-1.9
			c-0.2-0.4-0.5-1.1-0.7-2.1C232.5,443.9,232.4,443.1,232.4,442.2z M241,435.1c-0.7,0-1.4,0.2-2,0.5c-0.6,0.3-1,0.7-1.3,1.1
			c-0.5,0.7-0.8,1.5-1,2.3c-0.2,0.8-0.3,1.8-0.3,3c0,0.7,0,1.2,0.1,1.6c0,0.1,0,0.3,0.1,0.5c0.1,0.6,0.2,1.1,0.3,1.4
			c0.4,1.1,0.6,1.7,0.8,2c0.3,0.4,0.6,0.9,1.1,1.3c0.3,0.2,0.6,0.4,1.1,0.6c0.5,0.2,1,0.3,1.4,0.3c0.9,0,1.8-0.2,2.5-0.6
			c0.8-0.4,1.4-1.2,1.9-2.2c0.5-1,0.7-2.4,0.7-4c0-0.7,0-1.6-0.1-2.8l-0.1-0.2c0-0.1-0.1-0.2-0.1-0.5c-0.3-1.4-0.9-2.4-1.8-3.2
			C243.5,435.5,242.4,435.1,241,435.1z"/>
		<path class="st3" d="M258.4,445.4l2.3-2.4c1.2-1.2,2-2.1,2.6-2.6c0.6,0,1.1,0,1.4,0.1c-0.2,0.5-0.8,1.5-1.6,2.8l-1.2,2.1
			c0.5,0.7,1.1,1.7,1.9,3.2l0.9,1.6c0,0.1,0.1,0.2,0.1,0.3l-0.3,0l-0.4,0l-0.6,0C261.4,448.5,259.7,446.8,258.4,445.4z M263.7,445.4
			c0.1-0.1,1.1-1.2,3-3.3c0.6-0.7,1.1-1.2,1.5-1.7h0.3c0.2,0,0.6,0,1,0c-0.1,0.2-0.2,0.4-0.2,0.5l-2,4.1c0,0.1-0.1,0.2-0.1,0.3
			l1.1,2.1c0.1,0.3,0.3,0.5,0.3,0.7c0.2,0.4,0.4,0.8,0.5,1c0.2,0.4,0.3,0.7,0.5,1.1c-0.4,0-0.6,0-0.7,0c-0.1,0-0.3,0-0.6,0l-1.9-2.1
			L263.7,445.4z"/>
		<path class="st3" d="M270.9,435.1l0-1l3,0.2l1.4,0h0.5c0.5,0,1.3,0,2.4-0.1c0.6,0,1-0.1,1.2-0.1c1.1,0,1.9,0.1,2.4,0.2
			c0.8,0.2,1.5,0.4,2,0.8c0.5,0.4,0.9,0.9,1.3,1.6c0.4,0.7,0.5,1.3,0.5,1.9c0,1.5-0.5,2.7-1.4,3.6c-0.9,0.9-2.1,1.4-3.5,1.4
			c-0.5,0-1-0.1-1.4-0.2s-0.9-0.3-1.2-0.5c0-0.2-0.1-0.6-0.1-1c0.2,0,0.4,0,0.6,0s0.3,0,0.4,0c0.7,0,1.3-0.2,1.8-0.6
			c0.7-0.5,1-1.4,1-2.5c0-0.8-0.1-1.5-0.4-2c-0.3-0.5-0.6-0.9-1-1.1c-0.5-0.3-1.2-0.4-1.8-0.4c-0.6,0-1.1,0.1-1.4,0.3
			c-0.1,0.1-0.1,0.2-0.2,0.3l0.1,6l0,0.5l0,0.5c0,0.1,0,0.3,0,0.5v1l0,1.7l0,2c0,0.3,0,0.7,0.1,1.1l2.5,0.3c0,0.2,0.1,0.4,0.1,0.5
			c0,0.1,0,0.3-0.1,0.5c-0.2,0-0.4,0.1-0.5,0.1c-0.3,0-0.8,0-1.5-0.1c-0.7-0.1-1.6-0.1-2.5-0.1c-1,0-2,0.1-3,0.2
			c-0.2,0-0.4,0-0.8,0.1c0-0.2-0.1-0.4-0.1-0.5c0-0.1,0-0.2,0-0.4l0.8-0.3c0.5-0.2,1-0.4,1.4-0.6c0.1-0.2,0.1-0.5,0.1-0.7
			c0-0.1,0-0.2,0-0.3c0-0.3,0-0.6,0-1.1l0-3.6l-0.1-4c-0.1-1.9-0.1-2.9-0.1-3.1c-0.1-0.2-0.2-0.4-0.3-0.6c-0.1-0.1-0.4-0.2-0.7-0.3
			C271.6,435.2,271.1,435.1,270.9,435.1z"/>
		<path class="st3" d="M301.9,438.5l-0.5,0c-0.1,0-0.3,0-0.4,0c-0.1-0.2-0.2-0.4-0.3-0.7l-0.5-0.9c-0.2-0.4-0.5-0.8-0.8-1.2
			c-0.1-0.1-0.4-0.1-0.8-0.1l-2.9-0.2l-1.7,0l-0.7,0c-0.1,0.1-0.1,0.3-0.1,0.5l0,6l0,0.8l0,0.7l0.1,0.9c0,0.2,0,0.6-0.1,1.2
			c0,0.3,0,0.5,0,0.7l0.1,1l0,0.4c0,0.4,0,0.7,0,0.8c0,0.2,0,0.3,0.1,0.5c0.1,0,0.3,0.1,0.8,0.2l0.4,0.1c0.2,0.1,0.4,0.1,0.6,0.1
			c0.3,0,0.5,0.1,0.6,0.2c0.1,0.1,0.1,0.2,0.1,0.5c0,0.4-0.1,0.5-0.4,0.5c-0.1,0-0.5,0-1.1-0.1l-0.7,0l-0.2,0c-0.3,0-0.6,0-0.8,0
			l-1.3,0h-1.8l-1.7,0.1l-0.5,0c-0.1,0-0.2,0-0.2-0.1c0-0.1,0-0.2,0-0.3c0-0.1,0-0.3,0-0.5c0.1-0.1,0.3-0.2,0.6-0.3
			c0.2,0,0.4-0.1,0.6-0.2l0.5-0.2c0.4-0.1,0.6-0.2,0.7-0.3c0.1-0.1,0.1-0.3,0.2-0.7s0.1-0.7,0.1-0.8l0-2.7l0-1.6l0-1.3l0-1.3
			c0-0.7,0-1.6-0.1-2.7l0-1.6c0-0.3,0-0.5-0.1-0.6c-0.1-0.1-0.3-0.1-0.6-0.1c-0.1,0-0.5,0-1-0.1c-0.6-0.1-0.9-0.2-0.9-0.2
			c-0.1-0.1-0.1-0.4-0.1-0.7c0-0.1,0-0.2,0-0.3l0.4,0c0.2,0,0.5,0,1.1,0.1l3.7,0.1l5,0l1.7,0c1.1,0,2.2,0.1,3.1,0.2
			c0.2,0.1,0.2,0.4,0.2,0.7L301.9,438.5z"/>
		<path class="st3" d="M301.6,450.6l0-0.9c0.2-0.1,0.4-0.1,0.9-0.2c0.7-0.1,1-0.2,1.2-0.3s0.3-0.3,0.5-0.7l2.6-6.7l3-7.9
			c0.3,0,0.5,0,0.8,0h0.6l0.1,0.2l2.2,5.2c0.5,1.1,0.9,2.2,1.3,3.2c0.4,1,0.7,1.9,1,2.6c0.2,0.4,0.4,1,0.7,1.8
			c0.2,0.4,0.4,1,0.7,1.6c0.2,0.4,0.3,0.6,0.4,0.6c0.2,0.1,0.4,0.2,0.7,0.3s0.7,0.1,1.1,0.3c0,0.3,0.1,0.5,0.1,0.6
			c0,0.1,0,0.2,0,0.3c-0.6,0-1.3,0-2.1-0.1c-0.8-0.1-1.4-0.1-2-0.1c-0.7,0-1.2,0-1.4,0l-2.2,0.1l-0.6,0c0-0.3,0-0.6,0-0.9l1.4-0.3
			c0.4-0.1,0.7-0.2,0.7-0.3c0.1-0.1,0.1-0.2,0.1-0.3s0-0.2-0.1-0.3l-0.5-1.2l-1-2.5l-4.8,0c-0.2,0.4-0.6,1.4-1.1,3
			c-0.2,0.4-0.2,0.8-0.2,0.9c0,0.2,0.1,0.4,0.2,0.5c0.2,0.2,0.6,0.3,1.1,0.3c0.1,0,0.4,0.1,0.9,0.1c0,0.3,0,0.5,0,0.6
			c0,0.1,0,0.2,0,0.3c-0.5,0-1.8-0.1-3.8-0.2l-0.5,0.1c-0.6,0.1-1.2,0.2-1.8,0.2H301.6z M307.6,443.5c2,0,3.1,0,3.5,0l0.3,0
			c-0.3-0.8-0.6-1.6-1-2.6c-0.4-1-0.7-1.8-1-2.3L307.6,443.5z"/>
		<path class="st3" d="M320.4,433.5h0.8c0.1,0.1,0.1,0.2,0.1,0.2c0.2,0.4,0.4,0.7,0.5,0.8c0.1,0,0.7,0,1.7,0c0.7,0,1.2,0,1.7,0
			l0.3,0l1.5,0l2.9,0h3.9l0.7-0.1c0.1-0.1,0.2-0.3,0.4-0.6c0-0.1,0.1-0.2,0.1-0.3l0.6,0c0.1,0,0.2,0,0.4,0c0,0.6,0,1.5,0,2.6l0,1.1
			l0,0.6c0,0.2,0,0.4-0.1,0.6c-0.3,0.1-0.7,0.2-0.9,0.2c-0.2-0.3-0.5-0.8-0.7-1.4s-0.4-1-0.5-1c-0.1-0.1-0.2-0.2-0.4-0.2
			c-0.2,0-1.1-0.1-2.7-0.1c-0.2,0-0.5,0-0.9,0.1c0,0.3-0.1,0.6-0.1,0.8l0,1.7v3.7l0,4l0,1.7c0,0.6,0.1,1,0.2,1.3
			c0.1,0.1,0.4,0.1,0.8,0.2c0.1,0,0.4,0.1,0.9,0.2c0.3,0.1,0.5,0.1,0.7,0.2c0,0.3,0.1,0.5,0.1,0.6c0,0.1,0,0.2,0,0.3
			c-0.2,0-0.3,0-0.5,0c-0.9,0-1.6,0-2.2-0.1c-0.6-0.1-1.7-0.1-3.3-0.1c-0.3,0-1,0.1-2.2,0.2c-0.5,0-0.8,0.1-0.9,0.1
			c0-0.1,0-0.2,0-0.3l0-0.3V450c0.2-0.2,0.5-0.4,1.1-0.5c0.9-0.2,1.5-0.4,1.8-0.6c0.1-0.2,0.1-0.4,0.2-0.6c0.1-1,0.1-2.6,0.1-4.8
			l-0.1-4.8c0-1.3,0-2.1-0.1-2.4c0-0.1,0-0.1-0.1-0.2c0,0-0.1-0.1-0.2-0.1c-0.3,0-1.1-0.1-2.6-0.1c-0.8,0-1.3,0.1-1.6,0.2
			c-0.4,0.2-0.9,0.8-1.6,1.7c-0.2,0.3-0.4,0.4-0.5,0.4c-0.4-0.2-0.6-0.4-0.7-0.5c0.3-0.5,0.6-1.7,1.1-3.3
			C320.2,434,320.3,433.7,320.4,433.5z"/>
		<path class="st3" d="M345.6,447.1c-0.1-0.5-0.9-1.8-2.4-3.9c-0.5-0.7-0.9-1.3-1.3-2c-0.7-1.2-1.5-2.3-2.2-3.3l-0.3-0.5
			c-0.4-0.6-0.8-1.2-1.3-1.8c-0.2-0.2-0.5-0.3-1-0.4l-0.2-0.1c-0.2-0.1-0.3-0.1-0.4-0.1c0-0.1-0.1-0.1-0.1-0.2c0-0.1,0-0.1,0-0.2
			c0-0.1,0-0.2,0-0.4c0.1-0.1,0.4-0.1,0.7-0.1l0.8,0c0,0,0.1,0,0.1,0c0.2,0,0.4,0.1,0.4,0.1c0,0,0.1,0,0.1,0
			c0.9,0.1,2.1,0.2,3.5,0.2c0.7,0,1.3,0,2-0.1c0.1,0,0.2,0,0.2,0c0,0,0,0,0.1,0c0,0.1,0.1,0.2,0.1,0.3c0,0,0,0.1,0,0.2
			c0,0.1,0,0.1,0,0.1l0,0.4c-0.2,0.1-0.4,0.1-0.7,0.2l-0.6,0.1c-0.3,0-0.6,0.1-0.8,0.1c-0.1,0-0.1,0.1-0.1,0.2
			c0.1,0.3,0.4,0.7,0.8,1.3l0.3,0.6l0.7,1l1.8,2.7l1.3,2.4l3.3-7.1c0.3-0.5,0.4-0.8,0.4-0.9c0-0.2-0.3-0.4-0.8-0.4l-0.5-0.1
			c-0.2,0-0.3-0.1-0.4-0.1c0-0.1,0-0.4-0.1-0.9c0.1,0,0.5,0,1.1,0.1l1.5,0.1l0.3,0.1h0.6l0.2,0c0.2,0,0.4,0,0.5-0.1l0.4,0l0.1,0
			c0.1,0,0.2,0,0.4,0l0,1l-0.2,0.1c-0.7,0.1-1.2,0.2-1.5,0.4s-0.6,0.7-1,1.5l-4.5,9.6c-1.3,2.8-3,4.1-5.2,4.1
			c-0.9,0-1.6-0.2-2.1-0.6c-0.5-0.4-0.8-0.9-0.8-1.5c0-0.5,0.2-0.9,0.5-1.2c0.3-0.3,0.7-0.5,1.2-0.5c0.3,0,0.5,0.1,0.8,0.2
			c0.2,0.1,0.6,0.4,0.9,1c0.3,0.4,0.6,0.7,0.9,0.7C344.2,449,345,448.4,345.6,447.1z"/>
	</g>
	<g class="st2">
		<path class="st3" d="M125.8,476.5l-0.2-0.9c1.1,0.1,1.9,0.1,2.4,0.1l0.7,0l1,0c1.1,0,1.9,0,2.4-0.1l-0.2,0.9l-0.9,0.1
			c-0.4,0-0.6,0.1-0.7,0.2c0,0.1-0.1,0.8-0.1,2.1l0,0.8l0,1.1c0,2.7,0.1,4.2,0.2,4.4c0.5,0.1,0.9,0.2,1.2,0.2c0.1,0,0.3,0,0.4,0.1
			l0,0.7l-0.9,0c-0.9-0.1-1.6-0.1-2-0.1l-3.4,0.1l0-0.7c0.1,0,0.3-0.1,0.4-0.1c0.5-0.1,0.9-0.1,1.2-0.2c0.1-0.5,0.2-1.6,0.2-3.2
			l0-0.9l-0.1-1.4c0-0.1,0-0.4,0.1-0.7c-2.6,2.9-4.2,4.6-5,5.2c0,0.4,0.1,0.7,0.2,1c0.5,0.1,0.9,0.2,1.2,0.2c0.1,0,0.3,0,0.4,0.1
			l0,0.7l-0.9,0c-0.9-0.1-1.6-0.1-2-0.1l-3.4,0.1l0-0.7c0.1,0,0.3-0.1,0.4-0.1c0.5-0.1,0.9-0.1,1.2-0.2c0.1-0.5,0.2-1.1,0.2-1.7l0-2
			v-1.9l0-0.7l0-0.8c0-0.8,0-1.2-0.1-1.3c-0.1-0.1-0.3-0.2-0.7-0.2c-0.2,0-0.5,0-0.9-0.1l-0.2-0.9c1.1,0.1,1.9,0.1,2.4,0.1l0.7,0
			l1,0c1.1,0,1.9,0,2.4-0.1l-0.2,0.9l-0.9,0.1c-0.4,0-0.6,0.1-0.7,0.2c0,0.1-0.1,0.8-0.1,2.1l0,0.8l0,0.9l0,2.4l2.3-2.5
			c0.7-0.8,1.2-1.4,1.7-1.9c0.4-0.5,0.8-0.8,0.9-1c0-0.2,0-0.4,0-0.5c0-0.4-0.2-0.6-0.7-0.6C126.5,476.5,126.1,476.5,125.8,476.5z"
			/>
		<path class="st3" d="M133,486.1l0-0.7c0.9-0.1,1.3-0.3,1.5-0.6s0.2-1.5,0.3-3.5l0.1-2.7l0-0.3c0-0.9-0.1-1.4-0.2-1.5
			c-0.1-0.1-0.5-0.2-1-0.3c-0.2,0-0.3-0.1-0.4-0.1c0-0.1,0-0.3,0-0.4c0-0.1,0-0.2,0-0.4c0.2,0,0.5,0,0.7,0l0.5,0c0.3,0,0.5,0,0.8,0
			l1.3,0l0.8,0.1c0.2,0.1,0.4,0.6,0.8,1.5l1.6,3.3l1,2.3c0.1-0.3,0.4-1,0.9-2.1c0.6-1.2,1.1-2.4,1.6-3.6l0.1-0.3
			c0.1-0.2,0.2-0.4,0.3-0.7c0.1-0.2,0.2-0.3,0.4-0.3l0.3,0l0.7,0l1,0c0.3,0,0.7,0,1.2-0.1c0.3,0,0.5,0,0.5,0c0.1,0,0.1,0,0.2,0
			l0,0.2l0,0.4v0.2c-1.1,0.2-1.7,0.4-1.7,0.8c0,0.1,0,0.1,0,0.2v0.5c0,0.3,0,0.9,0.1,1.8l0.1,1.7c0.1,1.3,0.1,2.3,0.2,3
			c0,0.1,0,0.2,0,0.2c0,0.2,0,0.3,0.1,0.3c0.1,0,0.3,0.1,0.9,0.2l0.7,0.2c0,0.5,0,0.7,0,0.7c-0.2,0-0.5,0-1.1-0.1
			c-0.8-0.1-1.8-0.1-3-0.1c-0.3,0-0.8,0-1.4,0.1l-0.4,0c0-0.4,0-0.7,0-0.7c0.2-0.1,0.5-0.2,0.9-0.2c0.3,0,0.5-0.1,0.5-0.2
			s0.1-0.3,0.1-0.6l0-1.4l-0.1-1.3l-0.3-3.6l-2,4.6c-0.2,0.3-0.3,0.8-0.5,1.3l-0.4,0.9c-0.2,0.4-0.3,0.7-0.4,0.9
			c-0.1,0.4-0.2,0.6-0.3,0.7l-0.7,0.1l-1.3-2.7c-0.3-0.6-0.5-1.1-0.7-1.4l-1.1-2.5l-0.8-1.7l-0.1,3.8l0,0.3l0,0.5v1.3
			c0,0.5,0.1,0.9,0.3,1s0.5,0.3,1,0.4l0.4,0.1v0.8c-0.2,0-0.5,0-0.8-0.1c-0.6-0.1-1.3-0.1-2-0.1C134.4,486,133.8,486,133,486.1z"/>
		<path class="st3" d="M152.3,482.7c0.5,0,1,0.2,1.4,0.5c0.4,0.3,0.6,0.7,0.6,1.2c0,0.6-0.1,1-0.3,1.3c-0.4,0.5-0.9,0.7-1.5,0.7
			c-0.5,0-1-0.2-1.3-0.5s-0.5-0.8-0.5-1.3c0-0.3,0.1-0.7,0.3-0.9c0.1-0.2,0.4-0.5,0.8-0.7C151.7,482.7,151.9,482.7,152.3,482.7z"/>
		<path class="st3" d="M163,486c0-0.3,0-0.6,0.1-0.9c0.1,0,0.3,0,0.5-0.1l0.5-0.1c0.5-0.1,0.9-0.2,1.2-0.3l0.2-3.2l-0.1-2.6V478
			l0-3.6l0-1.1v-0.5c0-1-0.1-1.7-0.2-2c-0.1,0-0.1,0-0.2-0.1c-0.1,0-0.2,0-0.2,0c-0.4-0.1-0.7-0.1-1-0.1l-0.2-0.1
			c-0.2,0-0.4-0.1-0.5-0.1c0-0.2,0-0.4,0-0.5c0-0.1,0-0.2,0.1-0.4c0.2,0,0.4-0.1,0.6-0.1c0.5,0,1,0,1.6,0.1c1.5,0.1,3.2,0.2,5,0.2
			l4.1-0.1l3,0c2.2,0,3.8-0.1,4.8-0.2c0.4,0,0.6-0.1,0.7-0.1c0.2,0,0.4,0,0.8,0.1c0,0.3,0,0.6-0.1,0.9c-1.1,0.2-1.9,0.4-2.3,0.6
			c-0.1,0.2-0.1,0.6-0.1,1.4v0.3l0,0.6l0,2.8l0,2.2l0,1.7v1.8l0,1.5c0,0.3,0,0.6,0,1c0.2,0.1,0.3,0.1,0.5,0.1
			c0.8,0.2,1.4,0.3,1.8,0.5l0,0.9l-0.6,0c-0.1,0-0.3,0-0.4,0l-1-0.1c-0.7-0.1-1.8-0.1-3.3-0.1c-0.5,0-1,0-1.4,0.1l-1.3,0.1
			c-0.1,0-0.3,0-0.4-0.1c0-0.4,0-0.7,0.1-0.8l0.9-0.2l0.5-0.1c0.5-0.1,0.9-0.2,1-0.2c0.1-0.4,0.2-3,0.2-7.9l-0.1-5.5
			c-0.3,0-0.6,0-1-0.1l-5.9-0.1l-0.1,0c0,0-0.1,0-0.1,0c-0.1,0-0.1,0-0.2,0l-0.6,0c-0.5,0-0.8,0-0.9,0.1c0,0.9-0.1,1.7-0.1,2.3
			l0,6.5v3.7c0,0.5,0,0.8,0,0.9c0.1,0.1,0.2,0.1,0.4,0.1l0.6,0.1c0.2,0,0.5,0.1,0.7,0.1l0.5,0.1c0.1,0,0.2,0.1,0.3,0.1
			c0,0.2,0,0.3,0,0.4c0,0.1,0,0.3-0.1,0.5l-0.8,0c-0.3,0-0.8,0-1.4-0.1l-1,0l-0.6-0.1l-1.3,0c-0.3,0-0.7,0-1.2,0.1l-0.8,0.1H163z"/>
		<path class="st3" d="M188,482.7c0.5,0,1,0.2,1.4,0.5c0.4,0.3,0.6,0.7,0.6,1.2c0,0.6-0.1,1-0.3,1.3c-0.4,0.5-0.9,0.7-1.5,0.7
			c-0.5,0-1-0.2-1.3-0.5s-0.5-0.8-0.5-1.3c0-0.3,0.1-0.7,0.3-0.9c0.1-0.2,0.4-0.5,0.8-0.7C187.4,482.7,187.7,482.7,188,482.7z"/>
		<path class="st3" d="M191.1,486l0-0.9c0.2-0.1,0.4-0.1,0.9-0.2c0.7-0.1,1-0.2,1.2-0.3s0.3-0.3,0.5-0.7l2.6-6.7l3-7.9
			c0.3,0,0.5,0,0.8,0h0.6l0.1,0.2l2.2,5.2c0.5,1.1,0.9,2.2,1.3,3.2c0.4,1,0.7,1.9,1,2.6c0.2,0.4,0.4,1,0.7,1.8
			c0.2,0.4,0.4,1,0.7,1.6c0.2,0.4,0.3,0.6,0.4,0.6c0.2,0.1,0.4,0.2,0.7,0.3s0.7,0.1,1.1,0.3c0,0.3,0.1,0.5,0.1,0.6
			c0,0.1,0,0.2,0,0.3c-0.6,0-1.3,0-2.1-0.1s-1.4-0.1-2-0.1c-0.7,0-1.2,0-1.4,0l-2.2,0.1l-0.6,0c0-0.3,0-0.6,0-0.9l1.4-0.3
			c0.4-0.1,0.7-0.2,0.7-0.3c0.1-0.1,0.1-0.2,0.1-0.3s0-0.2-0.1-0.3l-0.5-1.2l-1-2.5l-4.8,0c-0.2,0.4-0.6,1.4-1.1,3
			c-0.2,0.4-0.2,0.8-0.2,0.9c0,0.2,0.1,0.4,0.2,0.5c0.2,0.2,0.6,0.3,1.1,0.3c0.1,0,0.4,0.1,0.9,0.1c0,0.3,0,0.5,0,0.6
			c0,0.1,0,0.2,0,0.3c-0.5,0-1.8-0.1-3.8-0.2l-0.5,0.1c-0.6,0.1-1.2,0.2-1.8,0.2H191.1z M197.1,478.9c2,0,3.1,0,3.5,0l0.3,0
			c-0.3-0.8-0.6-1.6-1-2.6c-0.4-1-0.7-1.8-1-2.3L197.1,478.9z"/>
		<path class="st3" d="M211.9,482.7c0.5,0,1,0.2,1.4,0.5c0.4,0.3,0.6,0.7,0.6,1.2c0,0.6-0.1,1-0.3,1.3c-0.4,0.5-0.9,0.7-1.5,0.7
			c-0.5,0-1-0.2-1.3-0.5s-0.5-0.8-0.5-1.3c0-0.3,0.1-0.7,0.3-0.9c0.1-0.2,0.4-0.5,0.8-0.7C211.3,482.7,211.5,482.7,211.9,482.7z"/>
		<path class="st3" d="M237.4,469.8c0.1,0.3,0.3,1,0.7,2.2c0.2,0.5,0.2,1.1,0.2,1.7h-1.2c-0.8-1.2-1.7-2-2.5-2.5
			c-0.9-0.5-1.8-0.8-2.9-0.8c-1.3,0-2.4,0.5-3.2,1.5c-1.1,1.4-1.6,3.3-1.6,5.8c0,1.4,0.1,2.5,0.3,3.1c0.3,1,0.7,1.8,1.2,2.4
			c0.4,0.5,0.8,0.9,1.4,1.1c0.7,0.4,1.5,0.6,2.4,0.6c0.9,0,1.8-0.3,2.7-0.9c0.9-0.6,1.7-1.4,2.5-2.6c0.3-0.1,0.7-0.1,1.2-0.1
			c0,0.3-0.1,0.7-0.2,1c0,0.1-0.1,0.7-0.3,1.6l-0.1,0.4l-0.2,0.6c-0.5,0.4-1.2,0.7-2.2,0.9c-0.9,0.2-2.1,0.3-3.4,0.3
			c-1,0-2-0.1-3-0.3s-1.7-0.5-2.4-0.9c-1-0.6-1.7-1.3-2.3-2s-1-1.5-1.2-2.3s-0.4-1.8-0.4-2.8c0-2.5,0.8-4.6,2.5-6.2s3.8-2.5,6.4-2.5
			c1,0,2,0.1,3,0.2C235.7,469.5,236.6,469.6,237.4,469.8z"/>
		<path class="st3" d="M250.4,476.8c0.5,0.5,0.9,1.1,1.2,1.8c0.3,0.7,0.4,1.3,0.4,1.9c0,1.1-0.2,2-0.5,2.7c-0.5,1-1.2,1.8-2.1,2.3
			s-1.9,0.7-3.1,0.7c-1.3,0-2.4-0.3-3.4-0.9c-0.9-0.6-1.6-1.3-2-2c-0.4-0.8-0.6-1.7-0.6-2.8c0-0.6,0.1-1.1,0.3-1.7
			c0.2-0.6,0.4-1.1,0.8-1.5s0.7-0.8,1.1-1.1c0.6-0.4,1.1-0.7,1.7-0.9c0.6-0.2,1.3-0.3,2.1-0.3C248,475.2,249.4,475.7,250.4,476.8z
			 M243.4,481.1c0.1,1.1,0.1,1.7,0.2,1.8c0.1,0.6,0.3,1.1,0.5,1.5c0.2,0.3,0.4,0.5,0.8,0.7c0.4,0.2,0.8,0.3,1.3,0.3
			c0.6,0,1.1-0.2,1.6-0.6c0.4-0.4,0.7-1,0.9-1.8c0.1-0.6,0.2-1.5,0.2-2.7c0-1.5-0.3-2.6-0.8-3.3s-1.2-1-2-1c-0.7,0-1.2,0.2-1.6,0.5
			c-0.4,0.4-0.7,0.9-0.9,1.6C243.5,478.7,243.4,479.6,243.4,481.1z"/>
		<path class="st3" d="M265,486.1h-0.3l-1.7,0l-0.9,0l-0.9,0l-0.7,0l-1.3,0c-0.1-0.2-0.1-0.3-0.1-0.4c0-0.1,0-0.3,0.1-0.5l0.5-0.1
			c0.6-0.1,0.9-0.2,0.9-0.4c0-0.1,0-0.3-0.1-0.5c-0.1-0.2-0.2-0.5-0.4-0.9c-0.2-0.5-0.5-1.2-1-2.3l-0.3-0.8
			c-0.3-0.6-0.5-1.2-0.8-1.7c-0.1,0.3-0.3,0.7-0.5,1.4c-0.2,0.6-0.5,1.4-0.9,2.5c-0.5,1.3-0.8,2.2-0.8,2.7c0.2,0,0.5,0.1,0.9,0.1
			l0.2,0c0.1,0,0.3,0,0.5,0l0.2,0c0,0.1,0,0.3,0,0.4c0,0.2,0,0.4-0.1,0.5l-0.2,0c-0.1,0-0.2,0-0.2,0l-1.1,0l-0.6,0
			c-0.4,0-0.8-0.1-1.2-0.1l-0.5,0l-0.5,0l-0.3,0c0-0.2,0-0.3,0-0.4s0-0.2,0-0.4c0.9-0.2,1.4-0.4,1.8-0.6c0.2-0.3,0.4-0.8,0.7-1.6
			c0.6-1.5,1.4-3.4,2.3-5.6c0.3-0.6,0.5-1.1,0.6-1.4c0.1-0.3,0.2-0.5,0.3-0.8h1c1,2.4,1.9,4.4,2.7,6l1.2,2.8l0.4,0.9
			c0,0,0.2,0.1,0.6,0.2c0.3,0.1,0.6,0.2,0.6,0.3c0,0.1,0,0.2,0,0.3C265,485.9,265,486,265,486.1z"/>
		<path class="st3" d="M275.8,476.8c0.5,0.5,0.9,1.1,1.2,1.8c0.3,0.7,0.4,1.3,0.4,1.9c0,1.1-0.2,2-0.5,2.7c-0.5,1-1.2,1.8-2.1,2.3
			s-1.9,0.7-3.1,0.7c-1.3,0-2.4-0.3-3.4-0.9c-0.9-0.6-1.6-1.3-2-2c-0.4-0.8-0.6-1.7-0.6-2.8c0-0.6,0.1-1.1,0.3-1.7
			c0.2-0.6,0.4-1.1,0.8-1.5s0.7-0.8,1.1-1.1c0.6-0.4,1.1-0.7,1.7-0.9c0.6-0.2,1.3-0.3,2.1-0.3C273.5,475.2,274.8,475.7,275.8,476.8z
			 M268.9,481.1c0.1,1.1,0.1,1.7,0.2,1.8c0.1,0.6,0.3,1.1,0.5,1.5c0.2,0.3,0.4,0.5,0.8,0.7c0.4,0.2,0.8,0.3,1.3,0.3
			c0.6,0,1.1-0.2,1.6-0.6c0.4-0.4,0.7-1,0.9-1.8c0.1-0.6,0.2-1.5,0.2-2.7c0-1.5-0.3-2.6-0.8-3.3s-1.2-1-2-1c-0.7,0-1.2,0.2-1.6,0.5
			c-0.4,0.4-0.7,0.9-0.9,1.6C269,478.7,268.9,479.6,268.9,481.1z"/>
		<path class="st3" d="M278.8,486.2l0-0.7c0.1,0,0.4-0.1,0.8-0.1c0.3-0.1,0.6-0.1,0.7-0.2c0.1-0.2,0.2-1.4,0.2-3.4l0-2.1l0-1.5
			c0-0.8,0-1.2-0.1-1.3c0-0.1-0.3-0.2-0.7-0.2l-0.9-0.1l-0.1-0.7l1.5,0l4.9-0.1c1.9,0,3.1,0.3,3.7,0.8c0.6,0.6,0.9,1.2,0.9,1.8
			c0,0.9-0.8,1.6-2.3,2.1c2,0.4,3,1.2,3,2.6c0,1-0.4,1.7-1.3,2.3c-0.9,0.5-2.1,0.8-3.5,0.8l-1.8,0L278.8,486.2z M283.3,480
			c0.2,0,0.5,0.1,0.9,0.1c1.9,0,2.8-0.6,2.8-1.8c0-0.4-0.2-0.7-0.6-1.1c-0.4-0.4-1.1-0.6-2.1-0.6c-0.3,0-0.6,0-1.1,0.1
			c0,0.1,0,0.3,0,0.5c0,0.5,0,1,0,1.6v0.7C283.3,479.6,283.3,479.8,283.3,480z M283.4,485c0.3,0.1,0.7,0.1,1.3,0.1
			c1.9,0,2.9-0.7,2.9-2.1c0-1.3-1.1-2-3.4-2c-0.5,0-0.7,0-0.8,0.1c0,0.1,0,0.2,0,0.2l0,0.8c0,0.9-0.1,1.7-0.1,2.5
			C283.3,484.7,283.3,484.8,283.4,485z"/>
		<path class="st3" d="M296.5,480.1l1.4,0l0.5,0c2.1,0,3.5,0.3,4.2,0.8c0.7,0.5,1.1,1.2,1.1,2.1c0,1.1-0.4,1.9-1.3,2.4
			c-0.9,0.5-2.1,0.8-3.6,0.8l-1.7,0l-5.1,0.1l0-0.8l0.8-0.1c0.3,0,0.6-0.1,0.7-0.2c0.1-0.2,0.2-1.4,0.2-3.4l0-2.2l0-1.5
			c0-0.8,0-1.2-0.1-1.3c0-0.1-0.3-0.2-0.7-0.2l-0.9-0.1l-0.1-0.7l1.5,0l0.5,0c0.4,0,0.9,0,1.5,0l1.4,0l0.9,0c0.2,0,0.4,0,0.8-0.1
			l-0.2,0.9c-0.6,0.1-0.9,0.1-1,0.1c-0.5,0-0.8,0.1-0.9,0.2c-0.1,0.1-0.1,0.4-0.1,0.9l0,1.2v0.7
			C296.4,479.7,296.4,479.9,296.5,480.1z M296.5,485c0.3,0.1,0.7,0.1,1.3,0.1c1.9,0,2.9-0.7,2.9-2.1c0-0.6-0.2-1.1-0.7-1.5
			s-1.2-0.6-2.2-0.6c-0.4,0-0.8,0-1.3,0.1c0,0.1,0,0.2,0,0.2l0,0.8c0,0.9-0.1,1.7-0.1,2.5C296.4,484.7,296.5,484.8,296.5,485z"/>
		<path class="st3" d="M305.7,479.3c0.2-0.7,0.4-1.2,0.6-1.4c0.5-0.7,1-1.2,1.5-1.6c0.5-0.4,1-0.6,1.5-0.8c0.6-0.2,1-0.2,1.4-0.2
			c0.8,0,1.4,0.1,1.9,0.2c0.5,0.1,0.9,0.3,1.2,0.5c0.5,0.3,0.9,0.7,1.1,1c0.3,0.3,0.5,0.7,0.7,1.2c0.2,0.5,0.3,1,0.3,1.7l-1.4,0
			c-0.4,0-1.2,0-2.6-0.1c-0.5,0-0.8-0.1-1-0.1c-0.1,0-0.5,0-1.4,0h-1.1c0,0.1,0,0.2,0,0.3c0,0.5,0.1,0.9,0.2,1.4
			c0.1,0.5,0.3,0.9,0.5,1.3c0.2,0.4,0.5,0.7,0.8,1c0.3,0.3,0.7,0.5,1,0.6l0.7,0.2c0.7,0,1.1,0,1.3-0.1c0.4-0.1,0.8-0.2,1.1-0.3
			c0.3-0.1,0.7-0.4,1.1-0.7c0.3,0.2,0.6,0.4,0.8,0.6c-0.7,0.8-1.5,1.4-2.3,1.8c-0.8,0.4-1.7,0.6-2.7,0.6c-0.7,0-1.2-0.1-1.6-0.2
			c-0.6-0.2-1.1-0.4-1.5-0.7s-0.9-0.7-1.2-1.2c-0.3-0.5-0.6-0.9-0.7-1.4c-0.2-0.6-0.3-1.2-0.3-1.6
			C305.5,480.5,305.6,479.9,305.7,479.3z M313.1,478.7c0-0.5-0.1-0.9-0.3-1.4c-0.2-0.4-0.5-0.8-0.8-1c-0.4-0.2-0.7-0.4-1.1-0.4
			c-0.6,0-1.1,0.2-1.5,0.7s-0.7,1.2-0.8,2l2.9,0c0.2,0,0.4,0,0.8,0c0.2,0,0.4,0,0.5,0C312.8,478.7,312.9,478.7,313.1,478.7z"/>
		<path class="st3" d="M317.2,486.2l0-0.7c0.1,0,0.4-0.1,0.8-0.1c0.3-0.1,0.6-0.1,0.7-0.2c0.1-0.2,0.2-1.4,0.2-3.4l0-2.1l0-1.5
			c0-0.8,0-1.2-0.1-1.3c0-0.1-0.3-0.2-0.7-0.2l-0.9-0.1l-0.1-0.7l1.5,0l4.9-0.1c1.9,0,3.1,0.3,3.7,0.8c0.6,0.6,0.9,1.2,0.9,1.8
			c0,0.9-0.8,1.6-2.3,2.1c2,0.4,3,1.2,3,2.6c0,1-0.4,1.7-1.3,2.3c-0.9,0.5-2.1,0.8-3.5,0.8l-1.8,0L317.2,486.2z M321.8,480
			c0.2,0,0.5,0.1,0.9,0.1c1.9,0,2.8-0.6,2.8-1.8c0-0.4-0.2-0.7-0.6-1.1c-0.4-0.4-1.1-0.6-2.1-0.6c-0.3,0-0.6,0-1.1,0.1
			c0,0.1,0,0.3,0,0.5c0,0.5,0,1,0,1.6v0.7C321.7,479.6,321.7,479.8,321.8,480z M321.8,485c0.3,0.1,0.7,0.1,1.3,0.1
			c1.9,0,2.9-0.7,2.9-2.1c0-1.3-1.1-2-3.4-2c-0.5,0-0.7,0-0.8,0.1c0,0.1,0,0.2,0,0.2l0,0.8c0,0.9-0.1,1.7-0.1,2.5
			C321.7,484.7,321.8,484.8,321.8,485z"/>
		<path class="st3" d="M341.6,483.6l0.3,0.2c0.1,0.1,0.1,0.1,0.1,0.2l0,0.1c-0.2,0.8-0.5,1.3-0.8,1.6c-0.3,0.3-0.7,0.4-1.2,0.4
			c-0.5,0-0.9-0.1-1.3-0.4c-0.4-0.3-0.7-0.8-1-1.5c-0.4,0.6-0.9,1.1-1.5,1.5c-0.7,0.3-1.5,0.5-2.4,0.5c-0.9,0-1.5-0.2-1.9-0.6
			c-0.4-0.4-0.6-0.9-0.6-1.5c0-0.3,0.1-0.6,0.2-0.9c0.1-0.3,0.3-0.6,0.6-0.9c0.3-0.3,0.7-0.6,1.3-0.9c0.1-0.1,0.4-0.2,1-0.4l3.2-1.3
			c0-0.3,0-0.6,0-1c0-1.1-0.1-1.9-0.4-2.3c-0.2-0.3-0.5-0.4-0.9-0.4c-0.4,0-0.8,0.1-1.2,0.2s-0.6,0.4-0.8,0.6
			c-0.1,0.2-0.2,0.5-0.3,1.1c-0.1,0.4-0.1,0.6-0.2,0.6c-0.1,0.2-0.4,0.3-0.7,0.4c-0.3,0.1-0.6,0.2-0.7,0.3c-0.5,0.2-0.8,0.3-1.1,0.3
			c-0.1-0.1-0.2-0.2-0.2-0.4c0-0.5,0.1-0.9,0.3-1.2c0.3-0.5,0.8-1,1.4-1.4c0.6-0.5,1.2-0.8,1.7-1c0.7-0.2,1.6-0.4,2.7-0.4
			c0.7,0,1.3,0.1,1.7,0.4c0.5,0.2,0.8,0.6,1,1.1s0.3,1.4,0.3,2.7l0,2.1l0,1.5v0.4c0,0.4,0,0.6,0.1,0.7c0.1,0.1,0.2,0.2,0.4,0.2
			c0.1,0,0.2,0,0.2-0.1l0.4-0.6L341.6,483.6z M337.5,480.7c-0.5,0.2-1,0.4-1.6,0.8c-0.6,0.4-1,0.8-1.3,1.1c-0.2,0.3-0.3,0.6-0.3,1
			c0,0.4,0.1,0.7,0.3,0.9c0.2,0.2,0.5,0.4,0.8,0.4c0.5,0,0.9-0.1,1.2-0.4c0.4-0.4,0.7-0.7,0.8-0.9c0.1-0.2,0.1-0.8,0.1-1.8
			C337.5,481.4,337.5,481,337.5,480.7z"/>
		<path class="st3" d="M342.8,475.8c0.3,0,0.5,0,0.6,0c0.2,0,0.4,0,0.6,0l1.5,1.7l3,3.3c-0.3,0.3-1.2,1.4-2.9,3.2
			c-0.5,0.6-1.1,1.2-1.6,1.8l-1.2,0l2.3-4.9C343.9,478.3,343.1,476.7,342.8,475.8z M350.5,480.8c-0.4-0.6-1.1-1.7-2.1-3.6
			c-0.4-0.8-0.7-1.3-0.8-1.5l0.2,0c0.4,0,0.8,0,1.2,0c0,0.1,0.8,0.9,2.4,2.4c1.1,1.1,1.9,2,2.5,2.6l-3,3.2c-0.2,0.2-0.8,0.8-1.8,1.8
			l-1.4,0c0.3-0.6,0.5-1,0.6-1.1l1.4-2.3L350.5,480.8z"/>
	</g>
</g>
<rect x="203.9" y="163" class="st3" width="61.7" height="3.1"/>
<rect x="204.9" y="168.3" class="st3" width="60.2" height="5.5"/>
<rect x="164.4" y="206.4" class="st3" width="139.4" height="10.8"/>
<rect x="150.6" y="389.4" class="st3" width="42.9" height="4.3"/>
<rect x="145.6" y="214.1" class="st3" width="6.8" height="5.9"/>
<rect x="343.7" y="214.1" class="st3" width="6.8" height="9.3"/>
<path class="st3" d="M160,188.8c-0.6-1.3,5.3-6,12.7-9.2c5.2-2.2,9.4-3,11-3.2c2.3-0.4,5.4-0.3,11.5-0.3c4.8,0,5.5,0.1,11.2,0.2
	c2.3,0,5,0,10.2,0c6.5,0,8.5,0,14.4,0c3.3,0,2.1,0,14.3,0c12.2,0,13.5,0,15.6,0c3,0,5.1-0.1,9.7-0.1c8.9-0.1,9.9,0,10.8,0.1
	c2.8,0.3,6.9,0.7,11.9,2.8c3.5,1.5,5.8,3.1,7.6,4.4c0.7,0.5,6.7,4.9,6,6.4c-0.3,0.6-1.3,0.1-2.9,1.2c-0.2,0.2-1.4,1-2.1,2.4
	c-0.7,1.5-0.7,1.7-0.7,1.7c-0.2,0.5-0.2,0.8-0.5,1c-0.2,0.1-0.3,0.1-1.1,0.1c-0.5,0-0.8,0-1.2,0c-0.1,0-0.8,0-2,0
	c-1.3,0-2.2,0-3.2,0.1c-1.2,0-1.3,0-4.8-0.1c-0.9,0-2.9-0.3-4.8-0.1c-2.1,0.2-4.6,0-5.2,0.1c-6,0.1-27.8,0-44.3-0.1
	c-10.8,0-19.4,0-25.1,0c-10.2,0-9.4,0-18.8,0c-4.2,0-5,0-6.9,0c-3.4,0.1-4,0.1-6.1,0.1c-1.9-0.1-2.6-0.1-4.6-0.1
	c-2.2,0-3.5,0.1-3.5,0.1c-0.5,0-1,0-1.6,0c-0.7,0-0.7,0-0.8,0c-0.6-0.3-0.2-1.5-0.8-2.9c-0.3-0.7-0.7-1.1-1.4-1.8
	c-0.9-1-1.8-1.5-2-1.6C161.1,189,160.2,189.3,160,188.8z"/>
<path class="st3" d="M146.4,223.6l175.3-0.3c0.8,0,0.6,0-0.5,1.4l-0.9,1.4c-0.8,1.1-0.7,1.1-1.1,1.1l-170,0.4c-0.1,0-0.1,0-0.8-1.1
	l-0.9-1.3C146.4,223.7,146.3,223.6,146.4,223.6z"/>
<rect x="315.9" y="214.1" class="st3" width="6.8" height="5.9"/>
<rect x="371.4" y="214.1" class="st3" width="6.8" height="9.3"/>
<rect x="117.5" y="214.3" class="st3" width="6.8" height="9.3"/>
<rect x="89.4" y="214.3" class="st3" width="6.8" height="9.3"/>
<rect x="88.2" y="210.3" class="st3" width="9.4" height="2.2"/>
<rect x="116.2" y="210.3" class="st3" width="9.4" height="2.2"/>
<rect x="144.3" y="210.3" class="st3" width="9.4" height="2.2"/>
<rect x="314.6" y="210.1" class="st3" width="9.4" height="2.2"/>
<rect x="342.4" y="210.1" class="st3" width="9.4" height="2.2"/>
<rect x="370.2" y="210.1" class="st3" width="9.4" height="2.2"/>
<path class="st5" d="M314.3,251.7c0.6-3.3,0.7-6.6,1.1-9.9s1.1-6.6,3-9.4s5-5.1,5.3-8.5"/>
<path class="st6" d="M155.1,221.2"/>
<g>
	<rect x="163.1" y="198.1" class="st3" width="142.2" height="6.9"/>
	<rect x="162.9" y="218.3" class="st3" width="142.2" height="3"/>
	<circle class="st3" cx="309" cy="197.4" r="6.6"/>
	<circle class="st3" cx="159" cy="197.4" r="6.6"/>
	<path class="st3" d="M163.4,221.3h-9l1-1.3c0.2-0.2,1-1.2,1.2-1.4c1-1.4,0.6-1.4,0.8-3.1l0.1-4.7c-0.1-0.7,0-2.9-0.1-3.2
		c-0.1-1.1-0.1-1.1-0.7-2.2l-2.1-3.8l8.8,1v6.8V221.3z"/>
	<path class="st3" d="M305,221.4h9l-1-1.3c-0.2-0.2-1-1.2-1.2-1.4c-1-1.4-0.6-1.4-0.8-3.1l-0.1-4.7c0.1-0.7,0-2.9,0.1-3.2
		c0.1-1.1,0.1-1.1,0.7-2.2l2.1-3.8l-8.8,1v6.8L305,221.4z"/>
</g>
<rect x="65.5" y="389.4" class="st3" width="82.9" height="4.3"/>
<rect x="64.4" y="376.3" class="st3" width="84.8" height="11.6"/>
<rect x="151.6" y="376.3" class="st3" width="41.9" height="11.6"/>
<rect x="274.5" y="389.3" class="st3" width="42.5" height="4.3"/>
<rect x="274.5" y="376.3" class="st3" width="41.5" height="11.6"/>
<rect x="319.4" y="389.1" class="st3" width="86" height="4.6"/>
<rect x="318.7" y="376.3" class="st3" width="88.6" height="11.6"/>
<path class="st3" d="M149.6,231.5c0,6.5,0,6.8,0,6.8H67.3v-12.8h77.2"/>
<path class="st3" d="M323.9,225.5h78.9v12.8h-84.1c0,0,0-0.3,0-6.8"/>
<rect x="151.8" y="340.5" class="st3" width="164.5" height="34.9"/>
<rect x="214.5" y="364.8" class="st3" width="9" height="29"/>
<rect x="244.8" y="364.8" class="st3" width="8.5" height="29"/>
<rect x="60.8" y="357.9" class="st3" width="88.4" height="17.4"/>
<rect x="59.3" y="340.5" class="st3" width="89.8" height="17.9"/>
<rect x="58.4" y="285.3" class="st3" width="92.4" height="38.5"/>
<path class="st3" d="M68.8,240.1h79.8c2.8,0.7,3.6,3.2,3.6,5.6l0.4,28c0,3.8,0,6.1,0,6.1l-82,0.4c-5.7,0-11.3,1.5-11.3-4.3l4.4-23.5
	C63.7,246.6,63.1,240.1,68.8,240.1z"/>
<rect x="58.4" y="278.2" class="st3" width="92.2" height="8.8"/>
<rect x="57.7" y="331.5" class="st3" width="91.5" height="9.7"/>
<rect x="56.9" y="321.7" class="st3" width="93" height="11.3"/>
<rect x="318.7" y="357.9" class="st3" width="91" height="17.4"/>
<rect x="318.7" y="341.6" class="st3" width="92.8" height="17.4"/>
<rect x="318.7" y="333.4" class="st3" width="95.5" height="9"/>
<rect x="317.4" y="321.7" class="st3" width="96.8" height="12.8"/>
<rect x="316.9" y="286.5" class="st3" width="96.8" height="36.7"/>
<rect x="317.8" y="278.2" class="st3" width="93.8" height="8.8"/>
<path class="st3" d="M407.6,252.4l4.5,23.5c0,5.8-5.7,4.3-11.7,4.3l-84.9-0.4c0,0,0-2.2,0-6.1l0.4-28c0-2.4,0.9-5,3.8-5.6h82.6
	C408.3,240.1,407.6,246.6,407.6,252.4z"/>
<rect x="152.6" y="325.4" class="st3" width="162.9" height="6.1"/>
<rect x="153.3" y="288.3" class="st3" width="160.9" height="37.8"/>
<rect x="154.2" y="241.3" class="st3" width="158.7" height="37.8"/>
<path class="st3" d="M153.7,229.2h76.7c2.8,0,5.1,2.3,5.1,5.1v4.1c0,2.8-2.3,5.1-5.1,5.1l-75.5-0.3c-1.2-1.4-1.2-1.5-2.2-3.1
	c-0.6-1-1-1.3-1.2-3.8v-4.7C151.4,228.8,150.8,229.2,153.7,229.2z"/>
<path class="st3" d="M316.7,231.7v4.7c-0.2,2.4-0.6,2.8-1.3,3.8c-1.1,1.5-1.1,1.7-2.4,3.1l-82.1,0.3c-3.1,0-5.6-2.3-5.6-5.1v-4.1
	c0-2.8,2.5-5.1,5.6-5.1h83.4C317.3,229.2,316.7,228.9,316.7,231.7z"/>
<g id="Слой_2_1_">
	<g>
		<path class="st7" d="M172.1,239.3c0-2.5,1.1-5.6,2.5-5.6s2.5,3.1,2.5,5.6"/>
		<path class="st7" d="M154.5,252.7h7.5c0.1-1.9,0-6.3,0.2-7.5c0.2-1,0.4-2.3,0.9-3.5l0.6-1.8c0.3-0.9,0.7-1.7,0.8-2
			c0.7-1.8,1.6-4,2.9-4c1.4,0,2.5,2.5,2.7,5.4"/>
		<line class="st7" x1="169.6" y1="238.8" x2="172.3" y2="238.8"/>
		<line class="st7" x1="176.8" y1="238.8" x2="179.4" y2="238.8"/>
		<path class="st7" d="M192.4,252.7h-5.5c-0.1-1.9,0-6.3-0.2-7.5c-0.2-1-0.4-2.3-0.9-3.5l-0.6-1.8c-0.3-0.9-0.7-1.7-0.8-2
			c-0.7-1.8-1.6-4-2.9-4c-1.4,0-2.4,2.6-2.6,5.5"/>
	</g>
	<g>
		<path class="st7" d="M231.9,239.2c0-2.5,1.1-5.6,2.4-5.6s2.4,3.1,2.4,5.6"/>
		<path class="st7" d="M221.7,252.7c0.1-1.9,0-6.3,0.2-7.5c0.2-1,0.4-2.3,0.8-3.5l0.6-1.8c0.3-0.9,0.7-1.7,0.8-2
			c0.7-1.8,1.6-4,2.8-4c1.3,0,2.4,2.5,2.7,5.4"/>
		<line class="st7" x1="229.5" y1="238.7" x2="232.1" y2="238.7"/>
		<line class="st7" x1="236.5" y1="238.7" x2="239.1" y2="238.7"/>
		<path class="st7" d="M252,252.6h-5.5c-0.1-1.9,0-6.3-0.2-7.5c-0.2-1-0.4-2.3-0.8-3.5l-0.6-1.8c-0.3-0.9-0.7-1.7-0.8-2
			c-0.7-1.8-1.6-4-2.8-4c-1.3,0-2.3,2.6-2.6,5.5"/>
	</g>
	<g>
		<path class="st7" d="M202,239.6c0-2.5,1.1-5.6,2.4-5.6c1.3,0,2.4,3.1,2.4,5.6"/>
		<path class="st7" d="M191.9,253.1c0.1-1.9,0-6.3,0.2-7.5c0.2-1,0.4-2.3,0.8-3.5l0.6-1.8c0.3-0.9,0.7-1.7,0.8-2
			c0.7-1.8,1.6-4,2.8-4c1.3,0,2.4,2.5,2.7,5.4"/>
		<line class="st7" x1="199.6" y1="239.1" x2="202.3" y2="239.1"/>
		<line class="st7" x1="206.6" y1="239.1" x2="209.2" y2="239.1"/>
		<path class="st7" d="M222.1,253h-5.5c-0.1-1.9,0-6.3-0.2-7.5c-0.2-1-0.4-2.3-0.8-3.5l-0.6-1.8c-0.3-0.9-0.7-1.7-0.8-2
			c-0.7-1.8-1.6-4-2.8-4c-1.3,0-2.3,2.6-2.6,5.5"/>
	</g>
	<g>
		<path class="st7" d="M261.6,239.5c0-2.5,1.1-5.6,2.4-5.6s2.4,3.1,2.4,5.6"/>
		<path class="st7" d="M251.5,253.1c0.1-1.9,0-6.3,0.2-7.5c0.2-1,0.4-2.3,0.8-3.5l0.6-1.8c0.3-0.9,0.7-1.7,0.8-2
			c0.7-1.8,1.6-4,2.8-4c1.3,0,2.4,2.5,2.7,5.4"/>
		<line class="st7" x1="259.2" y1="239" x2="261.9" y2="239"/>
		<line class="st7" x1="266.2" y1="239" x2="268.8" y2="239"/>
		<path class="st7" d="M281.9,252.9h-5.7c-0.1-1.9,0-6.3-0.2-7.5c-0.2-1-0.4-2.3-0.8-3.5l-0.6-1.8c-0.3-0.9-0.7-1.7-0.8-2
			c-0.7-1.8-1.6-4-2.8-4c-1.3,0-2.3,2.6-2.6,5.5"/>
	</g>
	<g>
		<path class="st7" d="M291.6,239.6c0-2.5,1.1-5.6,2.4-5.6s2.4,3.1,2.4,5.6"/>
		<path class="st7" d="M281.4,253.1c0.1-1.9,0-6.3,0.2-7.5c0.2-1,0.4-2.3,0.8-3.5l0.6-1.8c0.3-0.9,0.7-1.7,0.8-2
			c0.7-1.8,1.6-4,2.8-4c1.3,0,2.4,2.5,2.7,5.4"/>
		<line class="st7" x1="289.2" y1="239.1" x2="291.8" y2="239.1"/>
		<line class="st7" x1="296.2" y1="239.1" x2="298.8" y2="239.1"/>
		<path class="st7" d="M314.4,252.9H306c-0.1-1.9,0.1-6.2-0.1-7.4c-0.2-1-0.4-2.3-0.8-3.5l-0.6-1.8c-0.3-0.9-0.7-1.7-0.8-2
			c-0.7-1.8-1.6-4-2.8-4c-1.3,0-2.3,2.6-2.6,5.5"/>
	</g>
	<rect x="287.6" y="349.7" class="st8" width="12.7" height="23.2"/>
	<rect x="253.3" y="362" class="st8" width="21.2" height="23.2"/>
	<rect x="223.6" y="362" class="st8" width="21.2" height="23.2"/>
	<rect x="193.5" y="362" class="st8" width="21" height="23.2"/>
	<rect x="167.8" y="349" class="st8" width="12.7" height="23.2"/>
	<rect x="166.4" y="373.7" class="st8" width="15.7" height="1.2"/>
	<rect x="286.1" y="373.7" class="st8" width="15.7" height="1.2"/>
	<ellipse class="st8" cx="204" cy="360.2" rx="10.6" ry="11.4"/>
	<ellipse class="st8" cx="234.2" cy="360.2" rx="10.6" ry="11.4"/>
	<ellipse class="st8" cx="263.9" cy="360.2" rx="10.6" ry="11.4"/>
	<rect x="66.4" y="325.3" class="st8" width="20.9" height="1.2"/>
	<rect x="127" y="349.7" class="st8" width="15.1" height="23.2"/>
	<rect x="126.8" y="373.7" class="st8" width="15.7" height="1.2"/>
	<rect x="69.4" y="349.7" class="st8" width="15.1" height="23.2"/>
	<rect x="69.1" y="373.7" class="st8" width="15.7" height="1.2"/>
	<rect x="98.1" y="349.7" class="st8" width="15.1" height="23.2"/>
	<path class="st8" d="M152.1,279.1h13.7c2,0,3.6,1.6,3.6,3.6l0,0c0,2-1.6,3.6-3.6,3.6h-13.7c-2,0-3.6-1.6-3.6-3.6l0,0
		C148.5,280.7,150.1,279.1,152.1,279.1z"/>
	<rect x="95.1" y="325.3" class="st8" width="20.9" height="1.2"/>
	<g>
		<ellipse class="st8" cx="293.9" cy="250.7" rx="9.4" ry="5.5"/>
		<rect x="284.5" y="250.7" class="st8" width="18.8" height="23.5"/>
	</g>
	<g>
		<ellipse class="st8" cx="264.3" cy="250.8" rx="9.4" ry="5.5"/>
		<rect x="254.9" y="250.8" class="st8" width="18.8" height="23.5"/>
	</g>
	<g>
		<ellipse class="st8" cx="234.4" cy="250.8" rx="9.4" ry="5.5"/>
		<rect x="225" y="250.8" class="st8" width="18.8" height="23.5"/>
	</g>
	<g>
		<ellipse class="st8" cx="204.1" cy="250.8" rx="9.4" ry="5.5"/>
		<rect x="194.7" y="250.8" class="st8" width="18.8" height="23.5"/>
	</g>
	<g>
		<ellipse class="st8" cx="174.2" cy="250.8" rx="9.4" ry="5.5"/>
		<rect x="164.8" y="250.8" class="st8" width="18.8" height="23.5"/>
	</g>
	<rect x="323.6" y="276.1" class="st8" width="20.9" height="1.2"/>
	<rect x="351.5" y="276.1" class="st8" width="20.9" height="1.2"/>
	<rect x="381" y="276.1" class="st8" width="20.9" height="1.2"/>
	<rect x="123.7" y="325.3" class="st8" width="20.9" height="1.2"/>
	<rect x="381" y="325.3" class="st8" width="20.9" height="1.2"/>
	<path class="st8" d="M150.5,332.4h16.2c2.3,0,4.2,1.8,4.2,4l0,0c0,2.2-1.9,4-4.2,4h-16.2c-2.3,0-4.2-1.8-4.2-4l0,0
		C146.2,334.2,148.1,332.4,150.5,332.4z"/>
	<rect x="97.8" y="373.7" class="st8" width="15.7" height="1.2"/>
	<rect x="323.6" y="325.9" class="st8" width="20.9" height="1.2"/>
	<rect x="352.4" y="325.9" class="st8" width="20.9" height="1.2"/>
	<g>
		<ellipse class="st8" cx="105.7" cy="250.8" rx="9.4" ry="5.5"/>
		<rect x="96.3" y="250.8" class="st8" width="18.8" height="23.5"/>
	</g>
	<rect x="95.3" y="275.5" class="st8" width="20.9" height="1.2"/>
	<g>
		<ellipse class="st8" cx="134.3" cy="250.8" rx="9.4" ry="5.5"/>
		<rect x="124.9" y="250.8" class="st8" width="18.8" height="23.5"/>
	</g>
	<rect x="123.9" y="275.5" class="st8" width="20.9" height="1.2"/>
	<g>
		<ellipse class="st8" cx="76.7" cy="250.8" rx="9.4" ry="5.5"/>
		<rect x="67.3" y="250.8" class="st8" width="18.8" height="23.5"/>
	</g>
	<rect x="66.3" y="275.5" class="st8" width="20.9" height="1.2"/>
	<g>
		<ellipse class="st8" cx="76.8" cy="300.6" rx="9.4" ry="9.8"/>
		<rect x="67.4" y="299.9" class="st8" width="18.8" height="24.3"/>
	</g>
	<g>
		<ellipse class="st8" cx="106" cy="300.6" rx="9.4" ry="9.8"/>
		<rect x="96.6" y="299.9" class="st8" width="18.8" height="24.3"/>
	</g>
	<g>
		<ellipse class="st8" cx="134.2" cy="300.6" rx="9.4" ry="9.8"/>
		<rect x="124.7" y="299.9" class="st8" width="18.8" height="24.3"/>
	</g>
	<g>
		<ellipse class="st8" cx="391.4" cy="250.8" rx="9.4" ry="5.5"/>
		<rect x="382" y="250.8" class="st8" width="18.8" height="23.5"/>
	</g>
	<g>
		<ellipse class="st8" cx="362.8" cy="250.8" rx="9.4" ry="5.5"/>
		<rect x="353.4" y="250.8" class="st8" width="18.8" height="23.5"/>
	</g>
	<g>
		<ellipse class="st8" cx="333.9" cy="250.8" rx="9.4" ry="5.5"/>
		<rect x="324.5" y="250.8" class="st8" width="18.8" height="23.5"/>
	</g>
	<rect x="283.5" y="276.1" class="st8" width="20.9" height="1.2"/>
	<rect x="253.9" y="276.1" class="st8" width="20.9" height="1.2"/>
	<rect x="224" y="276.1" class="st8" width="20.9" height="1.2"/>
	<rect x="193.7" y="276.1" class="st8" width="20.9" height="1.2"/>
	<rect x="163.7" y="276.1" class="st8" width="20.9" height="1.2"/>
	<rect x="283.5" y="325.4" class="st8" width="20.9" height="1.2"/>
	<rect x="253.6" y="325.4" class="st8" width="20.9" height="1.2"/>
	<rect x="223.6" y="325.4" class="st8" width="20.9" height="1.2"/>
	<rect x="193.4" y="325.4" class="st8" width="20.9" height="1.2"/>
	<rect x="163.7" y="325.4" class="st8" width="20.9" height="1.2"/>
	<g>
		<ellipse class="st8" cx="293.9" cy="300.6" rx="9.4" ry="9.8"/>
		<rect x="284.5" y="299.9" class="st8" width="18.8" height="24.3"/>
	</g>
	<g>
		<ellipse class="st8" cx="263.9" cy="300.6" rx="9.4" ry="9.8"/>
		<rect x="254.5" y="299.9" class="st8" width="18.8" height="24.3"/>
	</g>
	<g>
		<ellipse class="st8" cx="234.1" cy="300.6" rx="9.4" ry="9.8"/>
		<rect x="224.6" y="299.9" class="st8" width="18.8" height="24.3"/>
	</g>
	<g>
		<ellipse class="st8" cx="204.1" cy="300.6" rx="9.4" ry="9.8"/>
		<rect x="194.7" y="299.9" class="st8" width="18.8" height="24.3"/>
	</g>
	<g>
		<ellipse class="st8" cx="174.2" cy="300.6" rx="9.4" ry="9.8"/>
		<rect x="164.8" y="299.9" class="st8" width="18.8" height="24.3"/>
		<ellipse class="st7" cx="174.5" cy="288.4" rx="2.1" ry="1.3"/>
		<ellipse class="st7" cx="204.1" cy="288.4" rx="2.1" ry="1.3"/>
		<ellipse class="st7" cx="234.1" cy="288.4" rx="2.1" ry="1.3"/>
		<ellipse class="st7" cx="263.9" cy="288.4" rx="2.1" ry="1.3"/>
		<ellipse class="st7" cx="293.9" cy="288.4" rx="2.1" ry="1.3"/>
	</g>
	<rect x="326" y="373.7" class="st8" width="15.7" height="1.2"/>
	<rect x="355.2" y="373.7" class="st8" width="15.1" height="1.2"/>
	<rect x="383.9" y="373.7" class="st8" width="15.1" height="1.2"/>
	<path class="st8" d="M305.3,332.4H319c2,0,3.6,1.8,3.6,3.9l0,0c0,2.2-1.6,3.9-3.6,3.9h-13.7c-2,0-3.6-1.8-3.6-3.9l0,0
		C301.7,334.1,303.4,332.4,305.3,332.4z"/>
	<rect x="355.2" y="349.7" class="st8" width="15.1" height="23.2"/>
	<rect x="326.3" y="349.7" class="st8" width="15.1" height="23.2"/>
	<rect x="383.9" y="349.7" class="st8" width="15.1" height="23.2"/>
	<g>
		<ellipse class="st8" cx="391.4" cy="300.6" rx="9.4" ry="9.8"/>
		<rect x="382" y="299.9" class="st8" width="18.8" height="24.3"/>
	</g>
	<g>
		<ellipse class="st8" cx="362.8" cy="300.6" rx="9.4" ry="9.8"/>
		<rect x="353.4" y="299.9" class="st8" width="18.8" height="24.3"/>
	</g>
	<g>
		<ellipse class="st8" cx="334" cy="300.6" rx="9.4" ry="9.8"/>
		<rect x="324.6" y="299.9" class="st8" width="18.8" height="24.3"/>
	</g>
	<path class="st8" d="M303.4,279.4h13.7c2,0,3.6,1.6,3.6,3.6l0,0c0,2-1.6,3.6-3.6,3.6h-13.7c-2,0-3.6-1.6-3.6-3.6l0,0
		C299.8,281,301.4,279.4,303.4,279.4z"/>
	<rect x="156.2" y="195.9" class="st8" width="5.5" height="1.2"/>
	<rect x="305.8" y="195.9" class="st8" width="5.5" height="1.2"/>
	<line class="st9" x1="317.4" y1="323" x2="318" y2="325.3"/>
	<line class="st9" x1="150.3" y1="323.5" x2="149.5" y2="325.9"/>
</g>
<rect x="252.4" y="360.4" class="st3" width="23.1" height="1.7"/>
<rect x="223.2" y="360.4" class="st3" width="23.1" height="1.7"/>
<rect x="192.7" y="360.4" class="st3" width="23.1" height="1.7"/>
<g>
	<rect x="150.6" y="336" class="st3" width="167.5" height="3"/>
	<rect x="151.6" y="333" class="st3" width="164.8" height="1.5"/>
</g>
<path class="st3" d="M151.6,281.6l165.2-0.3c0.8,0,0.6,0-0.5,1.6l-0.8,1.6c-0.8,1.3-0.7,1.3-1,1.3l-160.1,0.5c-0.1,0-0.1,0-0.7-1.2
	l-0.8-1.5C151.6,281.8,151.5,281.6,151.6,281.6z"/>
<rect x="166.1" y="185.6" class="st3" width="134.6" height="10.8"/>
<rect x="186.1" y="176.1" class="st3" width="93.8" height="10.8"/>
</svg>
